<svg width="975" height="650" viewBox="0 0 975 650" fill="none" xmlns="http://www.w3.org/2000/svg">
<rect width="975" height="650" fill="#57664C"/>
<rect x="8" y="8" width="960" height="633" fill="#4A5642"/>
<path d="M22.8636 56V26.9091H39.7386V29.2955H25.5199V40.2472H38.8438V42.6335H25.5199V53.6136H40.0227V56H22.8636ZM63.8682 26.9091L71.9222 39.5369H72.1068L80.1608 26.9091H83.3L73.9392 41.4545L83.3 56H80.1608L72.1068 43.5142H71.9222L63.8682 56H60.729L70.2318 41.4545L60.729 26.9091H63.8682ZM128.672 41.4545C128.672 44.4848 128.133 47.1222 127.053 49.3665C125.974 51.6013 124.487 53.3343 122.593 54.5653C120.708 55.7869 118.54 56.3977 116.087 56.3977C113.635 56.3977 111.461 55.7869 109.567 54.5653C107.683 53.3343 106.201 51.6013 105.121 49.3665C104.051 47.1222 103.516 44.4848 103.516 41.4545C103.516 38.4242 104.051 35.7917 105.121 33.5568C106.201 31.3125 107.688 29.5795 109.582 28.358C111.475 27.1269 113.644 26.5114 116.087 26.5114C118.54 26.5114 120.708 27.1269 122.593 28.358C124.487 29.5795 125.974 31.3125 127.053 33.5568C128.133 35.7917 128.672 38.4242 128.672 41.4545ZM126.087 41.4545C126.087 38.8504 125.652 36.6203 124.78 34.7642C123.909 32.8987 122.721 31.4735 121.215 30.4886C119.709 29.5038 118 29.0114 116.087 29.0114C114.184 29.0114 112.479 29.5038 110.974 30.4886C109.468 31.4735 108.275 32.8939 107.394 34.75C106.523 36.6061 106.087 38.8409 106.087 41.4545C106.087 44.0587 106.523 46.2888 107.394 48.1449C108.265 50.0009 109.454 51.4261 110.959 52.4205C112.465 53.4053 114.174 53.8977 116.087 53.8977C118 53.8977 119.709 53.4053 121.215 52.4205C122.73 51.4356 123.923 50.0152 124.795 48.1591C125.666 46.2936 126.097 44.0587 126.087 41.4545ZM160.419 56H151.896V26.9091H160.931C163.705 26.9091 166.077 27.4867 168.047 28.642C170.026 29.7973 171.541 31.4545 172.592 33.6136C173.644 35.7727 174.169 38.3627 174.169 41.3835C174.169 44.4328 173.629 47.0511 172.55 49.2386C171.48 51.4167 169.917 53.0881 167.862 54.2528C165.817 55.4176 163.336 56 160.419 56ZM154.553 53.6136H160.263C162.763 53.6136 164.856 53.1212 166.541 52.1364C168.227 51.1515 169.491 49.7453 170.334 47.9176C171.177 46.09 171.598 43.9119 171.598 41.3835C171.589 38.8741 171.172 36.715 170.348 34.9062C169.534 33.0975 168.322 31.7102 166.712 30.7443C165.111 29.7784 163.132 29.2955 160.774 29.2955H154.553V53.6136ZM216.797 26.9091H219.453V46.1705C219.453 48.1496 218.989 49.9205 218.061 51.483C217.133 53.036 215.84 54.2623 214.183 55.1619C212.535 56.0521 210.618 56.4972 208.43 56.4972C206.252 56.4972 204.334 56.0473 202.677 55.1477C201.02 54.2481 199.727 53.0218 198.799 51.4688C197.871 49.9157 197.407 48.1496 197.407 46.1705V26.9091H200.064V45.9858C200.064 47.5294 200.409 48.9072 201.101 50.1193C201.792 51.322 202.762 52.2689 204.012 52.9602C205.272 53.6515 206.745 53.9972 208.43 53.9972C210.116 53.9972 211.588 53.6515 212.848 52.9602C214.107 52.2689 215.078 51.322 215.76 50.1193C216.451 48.9072 216.797 47.5294 216.797 45.9858V26.9091ZM259.768 34.1818C259.607 32.5625 258.893 31.2746 257.624 30.3182C256.355 29.3617 254.759 28.8835 252.837 28.8835C251.482 28.8835 250.289 29.1155 249.257 29.5795C248.234 30.0436 247.429 30.6875 246.842 31.5114C246.265 32.3258 245.976 33.2538 245.976 34.2955C245.976 35.0625 246.142 35.7348 246.473 36.3125C246.804 36.8902 247.25 37.3873 247.808 37.804C248.376 38.2112 249.001 38.5616 249.683 38.8551C250.375 39.1487 251.071 39.3949 251.771 39.5938L254.839 40.4744C255.768 40.7301 256.696 41.0568 257.624 41.4545C258.552 41.8523 259.399 42.3542 260.166 42.9602C260.943 43.5568 261.563 44.2907 262.027 45.1619C262.5 46.0237 262.737 47.0606 262.737 48.2727C262.737 49.8258 262.335 51.2225 261.53 52.4631C260.725 53.7036 259.57 54.6884 258.064 55.4176C256.558 56.1373 254.754 56.4972 252.652 56.4972C250.673 56.4972 248.954 56.1705 247.496 55.517C246.037 54.8542 244.892 53.9403 244.058 52.7756C243.225 51.6108 242.756 50.2614 242.652 48.7273H245.379C245.474 49.8731 245.853 50.8437 246.516 51.6392C247.179 52.4347 248.04 53.0407 249.101 53.4574C250.161 53.8646 251.345 54.0682 252.652 54.0682C254.101 54.0682 255.389 53.8267 256.516 53.3438C257.652 52.8513 258.542 52.1695 259.186 51.2983C259.839 50.4176 260.166 49.3949 260.166 48.2301C260.166 47.2453 259.911 46.4214 259.399 45.7585C258.888 45.0862 258.173 44.5227 257.254 44.0682C256.345 43.6136 255.289 43.2112 254.087 42.8608L250.607 41.8381C248.324 41.1562 246.554 40.214 245.294 39.0114C244.035 37.8087 243.405 36.2746 243.405 34.4091C243.405 32.8466 243.821 31.4735 244.655 30.2898C245.498 29.0966 246.634 28.1686 248.064 27.5057C249.503 26.8333 251.118 26.4972 252.908 26.4972C254.716 26.4972 256.317 26.8286 257.709 27.4915C259.101 28.1544 260.204 29.0682 261.018 30.233C261.842 31.3883 262.283 32.7045 262.339 34.1818H259.768Z" fill="white"/>
<line x1="8" y1="416.5" x2="968" y2="416.5" stroke="#65735A"/>
<line x1="8" y1="415.5" x2="968" y2="415.5" stroke="#3E4737"/>
<line x1="8" y1="66.5" x2="968" y2="66.5" stroke="#65735A"/>
<line x1="8" y1="65.5" x2="968" y2="65.5" stroke="#3E4737"/>
<line x1="8" y1="417.5" x2="968" y2="417.5" stroke="#8D9A83"/>
<line x1="8" y1="67.5" x2="968" y2="67.5" stroke="#8D9A83"/>
<path d="M41.7045 104C41.5483 103.522 41.3423 103.093 41.0866 102.714C40.8357 102.331 40.535 102.004 40.1847 101.734C39.839 101.464 39.446 101.259 39.0057 101.116C38.5653 100.974 38.0824 100.903 37.5568 100.903C36.6951 100.903 35.9115 101.126 35.206 101.571C34.5005 102.016 33.9394 102.672 33.5227 103.538C33.1061 104.405 32.8977 105.468 32.8977 106.727C32.8977 107.987 33.1084 109.05 33.5298 109.916C33.9512 110.783 34.5218 111.438 35.2415 111.884C35.9612 112.329 36.7708 112.551 37.6705 112.551C38.5038 112.551 39.2377 112.374 39.8722 112.018C40.5114 111.659 41.0085 111.152 41.3636 110.499C41.7235 109.84 41.9034 109.066 41.9034 108.176L42.4432 108.29H38.0682V106.727H43.608V108.29C43.608 109.488 43.3523 110.529 42.8409 111.415C42.3343 112.3 41.6335 112.987 40.7386 113.474C39.8485 113.957 38.8258 114.199 37.6705 114.199C36.3826 114.199 35.2509 113.896 34.2756 113.29C33.3049 112.684 32.5473 111.822 32.0028 110.705C31.4631 109.587 31.1932 108.261 31.1932 106.727C31.1932 105.577 31.3471 104.542 31.6548 103.624C31.9673 102.7 32.4077 101.914 32.9759 101.266C33.544 100.617 34.2164 100.12 34.9929 99.7741C35.7694 99.4285 36.6241 99.2557 37.5568 99.2557C38.3239 99.2557 39.0388 99.3717 39.7017 99.6037C40.3693 99.831 40.9635 100.155 41.4844 100.577C42.0099 100.993 42.4479 101.493 42.7983 102.075C43.1487 102.653 43.3902 103.295 43.5227 104H41.7045ZM49.6076 114.256C48.9163 114.256 48.2889 114.125 47.7255 113.865C47.1621 113.6 46.7146 113.219 46.3832 112.722C46.0517 112.22 45.886 111.614 45.886 110.903C45.886 110.278 46.0091 109.772 46.2553 109.384C46.5015 108.991 46.8306 108.683 47.2425 108.46C47.6545 108.238 48.109 108.072 48.6062 107.963C49.1081 107.849 49.6123 107.759 50.119 107.693C50.7818 107.608 51.3192 107.544 51.7312 107.501C52.1478 107.454 52.4509 107.376 52.6403 107.267C52.8344 107.158 52.9315 106.969 52.9315 106.699V106.642C52.9315 105.941 52.7397 105.397 52.3562 105.009C51.9774 104.62 51.4021 104.426 50.6303 104.426C49.8301 104.426 49.2028 104.601 48.7482 104.952C48.2937 105.302 47.9741 105.676 47.7894 106.074L46.1985 105.506C46.4826 104.843 46.8614 104.327 47.3349 103.957C47.8131 103.583 48.3339 103.323 48.8974 103.176C49.4656 103.025 50.0243 102.949 50.5735 102.949C50.9239 102.949 51.3263 102.991 51.7809 103.077C52.2402 103.157 52.6829 103.325 53.109 103.581C53.5399 103.837 53.8974 104.223 54.1815 104.739C54.4656 105.255 54.6076 105.946 54.6076 106.812V114H52.9315V112.523H52.8462C52.7326 112.759 52.5432 113.013 52.2781 113.283C52.0129 113.553 51.6602 113.782 51.2198 113.972C50.7795 114.161 50.2421 114.256 49.6076 114.256ZM49.8633 112.75C50.5262 112.75 51.0849 112.62 51.5394 112.359C51.9987 112.099 52.3443 111.763 52.5763 111.351C52.8131 110.939 52.9315 110.506 52.9315 110.051V108.517C52.8604 108.602 52.7042 108.68 52.4627 108.751C52.226 108.818 51.9513 108.877 51.6388 108.929C51.3311 108.976 51.0304 109.019 50.7369 109.057C50.448 109.09 50.2137 109.118 50.0337 109.142C49.5981 109.199 49.1909 109.291 48.8121 109.419C48.4381 109.542 48.1351 109.729 47.9031 109.98C47.6758 110.226 47.5621 110.562 47.5621 110.989C47.5621 111.571 47.7776 112.011 48.2085 112.31C48.6441 112.603 49.1957 112.75 49.8633 112.75ZM57.6669 114V103.091H59.343V114H57.6669ZM58.5192 101.273C58.1925 101.273 57.9107 101.161 57.674 100.939C57.442 100.716 57.326 100.449 57.326 100.136C57.326 99.8239 57.442 99.5563 57.674 99.3338C57.9107 99.1113 58.1925 99 58.5192 99C58.8459 99 59.1252 99.1113 59.3572 99.3338C59.594 99.5563 59.7124 99.8239 59.7124 100.136C59.7124 100.449 59.594 100.716 59.3572 100.939C59.1252 101.161 58.8459 101.273 58.5192 101.273ZM64.0891 107.438V114H62.413V103.091H64.0323V104.795H64.1744C64.43 104.241 64.8183 103.796 65.3391 103.46C65.86 103.119 66.5323 102.949 67.3562 102.949C68.0948 102.949 68.7411 103.1 69.2951 103.403C69.8491 103.702 70.2799 104.156 70.5877 104.767C70.8955 105.373 71.0494 106.14 71.0494 107.068V114H69.3732V107.182C69.3732 106.325 69.1507 105.657 68.7056 105.179C68.2605 104.696 67.6497 104.455 66.8732 104.455C66.3382 104.455 65.86 104.571 65.4386 104.803C65.0219 105.035 64.6928 105.373 64.4513 105.818C64.2099 106.263 64.0891 106.803 64.0891 107.438Z" fill="white"/>
<path d="M31.7614 183V168.455H36.6761C37.8172 168.455 38.75 168.661 39.4744 169.072C40.2036 169.48 40.7434 170.031 41.0938 170.727C41.4441 171.423 41.6193 172.2 41.6193 173.057C41.6193 173.914 41.4441 174.693 41.0938 175.393C40.7481 176.094 40.2131 176.653 39.4886 177.07C38.7642 177.482 37.8362 177.688 36.7045 177.688H33.1818V176.125H36.6477C37.429 176.125 38.0563 175.99 38.5298 175.72C39.0033 175.45 39.3466 175.086 39.5597 174.626C39.7775 174.162 39.8864 173.639 39.8864 173.057C39.8864 172.474 39.7775 171.954 39.5597 171.494C39.3466 171.035 39.0009 170.675 38.5227 170.415C38.0445 170.15 37.41 170.017 36.6193 170.017H33.5227V183H31.7614ZM47.4396 183.256C46.7483 183.256 46.121 183.125 45.5575 182.865C44.9941 182.6 44.5466 182.219 44.2152 181.722C43.8838 181.22 43.718 180.614 43.718 179.903C43.718 179.278 43.8411 178.772 44.0874 178.384C44.3336 177.991 44.6626 177.683 45.0746 177.46C45.4865 177.238 45.9411 177.072 46.4382 176.963C46.9401 176.849 47.4444 176.759 47.951 176.693C48.6139 176.608 49.1513 176.544 49.5632 176.501C49.9799 176.454 50.2829 176.376 50.4723 176.267C50.6664 176.158 50.7635 175.969 50.7635 175.699V175.642C50.7635 174.941 50.5717 174.397 50.1882 174.009C49.8094 173.62 49.2341 173.426 48.4624 173.426C47.6622 173.426 47.0348 173.601 46.5803 173.952C46.1257 174.302 45.8061 174.676 45.6214 175.074L44.0305 174.506C44.3146 173.843 44.6934 173.327 45.1669 172.957C45.6451 172.583 46.166 172.323 46.7294 172.176C47.2976 172.025 47.8563 171.949 48.4055 171.949C48.7559 171.949 49.1584 171.991 49.6129 172.077C50.0722 172.157 50.5149 172.325 50.9411 172.581C51.3719 172.837 51.7294 173.223 52.0135 173.739C52.2976 174.255 52.4396 174.946 52.4396 175.812V183H50.7635V181.523H50.6783C50.5646 181.759 50.3752 182.013 50.1101 182.283C49.8449 182.553 49.4922 182.782 49.0518 182.972C48.6115 183.161 48.0741 183.256 47.4396 183.256ZM47.6953 181.75C48.3582 181.75 48.9169 181.62 49.3714 181.359C49.8307 181.099 50.1764 180.763 50.4084 180.351C50.6451 179.939 50.7635 179.506 50.7635 179.051V177.517C50.6925 177.602 50.5362 177.68 50.2947 177.751C50.058 177.818 49.7834 177.877 49.4709 177.929C49.1631 177.976 48.8625 178.019 48.5689 178.057C48.2801 178.09 48.0457 178.118 47.8658 178.142C47.4302 178.199 47.023 178.291 46.6442 178.419C46.2701 178.542 45.9671 178.729 45.7351 178.98C45.5078 179.226 45.3942 179.562 45.3942 179.989C45.3942 180.571 45.6096 181.011 46.0405 181.31C46.4761 181.603 47.0277 181.75 47.6953 181.75ZM57.1751 176.438V183H55.4989V172.091H57.1183V173.795H57.2603C57.516 173.241 57.9042 172.796 58.4251 172.46C58.9459 172.119 59.6183 171.949 60.4421 171.949C61.1808 171.949 61.8271 172.1 62.381 172.403C62.935 172.702 63.3659 173.156 63.6737 173.767C63.9814 174.373 64.1353 175.14 64.1353 176.068V183H62.4592V176.182C62.4592 175.325 62.2366 174.657 61.7915 174.179C61.3465 173.696 60.7357 173.455 59.9592 173.455C59.4241 173.455 58.9459 173.571 58.5245 173.803C58.1078 174.035 57.7788 174.373 57.5373 174.818C57.2958 175.263 57.1751 175.803 57.1751 176.438Z" fill="white"/>
<path d="M31.7614 322V307.455H36.6761C37.8172 307.455 38.75 307.661 39.4744 308.072C40.2036 308.48 40.7434 309.031 41.0938 309.727C41.4441 310.423 41.6193 311.2 41.6193 312.057C41.6193 312.914 41.4441 313.693 41.0938 314.393C40.7481 315.094 40.2131 315.653 39.4886 316.07C38.7642 316.482 37.8362 316.688 36.7045 316.688H33.1818V315.125H36.6477C37.429 315.125 38.0563 314.99 38.5298 314.72C39.0033 314.45 39.3466 314.086 39.5597 313.626C39.7775 313.162 39.8864 312.639 39.8864 312.057C39.8864 311.474 39.7775 310.954 39.5597 310.494C39.3466 310.035 39.0009 309.675 38.5227 309.415C38.0445 309.15 37.41 309.017 36.6193 309.017H33.5227V322H31.7614ZM45.9055 315.438V322H44.2294V307.455H45.9055V312.795H46.0476C46.3033 312.232 46.6868 311.785 47.1982 311.453C47.7143 311.117 48.4008 310.949 49.2578 310.949C50.0012 310.949 50.6522 311.098 51.2109 311.396C51.7696 311.69 52.2029 312.142 52.5107 312.753C52.8232 313.359 52.9794 314.131 52.9794 315.068V322H51.3033V315.182C51.3033 314.315 51.0784 313.645 50.6286 313.172C50.1835 312.694 49.5656 312.455 48.7749 312.455C48.2256 312.455 47.7332 312.571 47.2976 312.803C46.8667 313.035 46.5258 313.373 46.2749 313.818C46.0286 314.263 45.9055 314.803 45.9055 315.438ZM59.256 322.256C58.5647 322.256 57.9374 322.125 57.3739 321.865C56.8105 321.6 56.363 321.219 56.0316 320.722C55.7002 320.22 55.5344 319.614 55.5344 318.903C55.5344 318.278 55.6576 317.772 55.9038 317.384C56.15 316.991 56.479 316.683 56.891 316.46C57.3029 316.238 57.7575 316.072 58.2546 315.963C58.7565 315.849 59.2608 315.759 59.7674 315.693C60.4303 315.608 60.9677 315.544 61.3796 315.501C61.7963 315.454 62.0993 315.376 62.2887 315.267C62.4828 315.158 62.5799 314.969 62.5799 314.699V314.642C62.5799 313.941 62.3881 313.397 62.0046 313.009C61.6258 312.62 61.0505 312.426 60.2788 312.426C59.4786 312.426 58.8512 312.601 58.3967 312.952C57.9421 313.302 57.6225 313.676 57.4379 314.074L55.8469 313.506C56.131 312.843 56.5098 312.327 56.9833 311.957C57.4615 311.583 57.9824 311.323 58.5458 311.176C59.114 311.025 59.6727 310.949 60.2219 310.949C60.5723 310.949 60.9748 310.991 61.4293 311.077C61.8886 311.157 62.3313 311.325 62.7575 311.581C63.1883 311.837 63.5458 312.223 63.8299 312.739C64.114 313.255 64.256 313.946 64.256 314.812V322H62.5799V320.523H62.4947C62.381 320.759 62.1916 321.013 61.9265 321.283C61.6613 321.553 61.3086 321.782 60.8683 321.972C60.4279 322.161 59.8905 322.256 59.256 322.256ZM59.5117 320.75C60.1746 320.75 60.7333 320.62 61.1879 320.359C61.6471 320.099 61.9928 319.763 62.2248 319.351C62.4615 318.939 62.5799 318.506 62.5799 318.051V316.517C62.5089 316.602 62.3526 316.68 62.1112 316.751C61.8744 316.818 61.5998 316.877 61.2873 316.929C60.9795 316.976 60.6789 317.019 60.3853 317.057C60.0965 317.09 59.8621 317.118 59.6822 317.142C59.2466 317.199 58.8394 317.291 58.4606 317.419C58.0865 317.542 57.7835 317.729 57.5515 317.98C57.3242 318.226 57.2106 318.562 57.2106 318.989C57.2106 319.571 57.426 320.011 57.8569 320.31C58.2925 320.603 58.8441 320.75 59.5117 320.75ZM75.0426 313.534L73.5369 313.96C73.4422 313.709 73.3026 313.465 73.1179 313.229C72.938 312.987 72.6918 312.788 72.3793 312.632C72.0668 312.476 71.6667 312.398 71.179 312.398C70.5114 312.398 69.955 312.552 69.5099 312.859C69.0696 313.162 68.8494 313.548 68.8494 314.017C68.8494 314.434 69.0009 314.763 69.304 315.004C69.607 315.246 70.0805 315.447 70.7244 315.608L72.3438 316.006C73.3191 316.242 74.0459 316.605 74.5241 317.092C75.0024 317.575 75.2415 318.198 75.2415 318.96C75.2415 319.585 75.0616 320.144 74.7017 320.636C74.3466 321.129 73.8494 321.517 73.2102 321.801C72.571 322.085 71.8277 322.227 70.9801 322.227C69.8674 322.227 68.9465 321.986 68.2173 321.503C67.4882 321.02 67.0265 320.314 66.8324 319.386L68.4233 318.989C68.5748 319.576 68.8613 320.016 69.2827 320.31C69.7088 320.603 70.2652 320.75 70.9517 320.75C71.733 320.75 72.3532 320.584 72.8125 320.253C73.2765 319.917 73.5085 319.514 73.5085 319.045C73.5085 318.667 73.3759 318.349 73.1108 318.094C72.8456 317.833 72.4384 317.639 71.8892 317.511L70.071 317.085C69.072 316.848 68.3381 316.482 67.8693 315.984C67.4053 315.482 67.1733 314.855 67.1733 314.102C67.1733 313.487 67.3461 312.942 67.6918 312.469C68.0421 311.995 68.518 311.624 69.1193 311.354C69.7254 311.084 70.4119 310.949 71.179 310.949C72.2585 310.949 73.1061 311.186 73.7216 311.659C74.3419 312.133 74.7822 312.758 75.0426 313.534ZM82.3384 322.227C81.2873 322.227 80.3806 321.995 79.6183 321.531C78.8607 321.062 78.2759 320.409 77.864 319.571C77.4568 318.728 77.2532 317.748 77.2532 316.631C77.2532 315.513 77.4568 314.528 77.864 313.676C78.2759 312.819 78.8488 312.152 79.5827 311.673C80.3214 311.19 81.1831 310.949 82.168 310.949C82.7362 310.949 83.2972 311.044 83.8512 311.233C84.4052 311.422 84.9094 311.73 85.364 312.156C85.8185 312.578 86.1808 313.136 86.4506 313.832C86.7205 314.528 86.8555 315.385 86.8555 316.403V317.114H78.4464V315.665H85.1509C85.1509 315.049 85.0278 314.5 84.7816 314.017C84.5401 313.534 84.1945 313.153 83.7447 312.874C83.2996 312.594 82.774 312.455 82.168 312.455C81.5004 312.455 80.9227 312.62 80.435 312.952C79.9521 313.278 79.5804 313.705 79.32 314.23C79.0595 314.756 78.9293 315.319 78.9293 315.92V316.886C78.9293 317.71 79.0714 318.409 79.3555 318.982C79.6443 319.55 80.0444 319.983 80.5558 320.281C81.0671 320.575 81.6613 320.722 82.3384 320.722C82.7788 320.722 83.1765 320.66 83.5316 320.537C83.8915 320.409 84.2016 320.22 84.462 319.969C84.7224 319.713 84.9237 319.396 85.0657 319.017L86.685 319.472C86.5146 320.021 86.2281 320.504 85.8256 320.92C85.4232 321.332 84.926 321.654 84.3342 321.886C83.7423 322.114 83.0771 322.227 82.3384 322.227ZM89.4052 322V311.091H91.0245V312.739H91.1381C91.337 312.199 91.6969 311.761 92.2177 311.425C92.7385 311.089 93.3256 310.92 93.979 310.92C94.1022 310.92 94.256 310.923 94.4407 310.928C94.6254 310.932 94.765 310.939 94.8597 310.949V312.653C94.8029 312.639 94.6727 312.618 94.4691 312.589C94.2702 312.556 94.0595 312.54 93.837 312.54C93.3067 312.54 92.8332 312.651 92.4165 312.874C92.0046 313.091 91.6779 313.394 91.4364 313.783C91.1997 314.166 91.0813 314.604 91.0813 315.097V322H89.4052Z" fill="white"/>
<path d="M31.7614 392V377.455H36.6761C37.8125 377.455 38.7453 377.649 39.4744 378.037C40.2036 378.42 40.7434 378.948 41.0938 379.621C41.4441 380.293 41.6193 381.058 41.6193 381.915C41.6193 382.772 41.4441 383.532 41.0938 384.195C40.7434 384.857 40.206 385.378 39.4815 385.757C38.7571 386.131 37.8314 386.318 36.7045 386.318H32.7273V384.727H36.6477C37.4242 384.727 38.0492 384.614 38.5227 384.386C39.0009 384.159 39.3466 383.837 39.5597 383.42C39.7775 382.999 39.8864 382.497 39.8864 381.915C39.8864 381.332 39.7775 380.823 39.5597 380.388C39.3419 379.952 38.9938 379.616 38.5156 379.379C38.0374 379.138 37.4053 379.017 36.6193 379.017H33.5227V392H31.7614ZM38.608 385.466L42.1875 392H40.142L36.6193 385.466H38.608ZM48.7837 392.227C47.7326 392.227 46.8259 391.995 46.0636 391.531C45.306 391.062 44.7212 390.409 44.3093 389.571C43.9021 388.728 43.6985 387.748 43.6985 386.631C43.6985 385.513 43.9021 384.528 44.3093 383.676C44.7212 382.819 45.2942 382.152 46.0281 381.673C46.7667 381.19 47.6284 380.949 48.6133 380.949C49.1815 380.949 49.7425 381.044 50.2965 381.233C50.8505 381.422 51.3548 381.73 51.8093 382.156C52.2638 382.578 52.6261 383.136 52.896 383.832C53.1658 384.528 53.3008 385.385 53.3008 386.403V387.114H44.8917V385.665H51.5962C51.5962 385.049 51.4731 384.5 51.2269 384.017C50.9854 383.534 50.6398 383.153 50.19 382.874C49.7449 382.594 49.2193 382.455 48.6133 382.455C47.9457 382.455 47.368 382.62 46.8803 382.952C46.3974 383.278 46.0257 383.705 45.7653 384.23C45.5049 384.756 45.3746 385.319 45.3746 385.92V386.886C45.3746 387.71 45.5167 388.409 45.8008 388.982C46.0896 389.55 46.4897 389.983 47.0011 390.281C47.5124 390.575 48.1067 390.722 48.7837 390.722C49.2241 390.722 49.6218 390.66 49.9769 390.537C50.3368 390.409 50.6469 390.22 50.9073 389.969C51.1677 389.713 51.369 389.396 51.511 389.017L53.1303 389.472C52.9599 390.021 52.6734 390.504 52.271 390.92C51.8685 391.332 51.3713 391.654 50.7795 391.886C50.1876 392.114 49.5224 392.227 48.7837 392.227ZM64.4389 381.091L60.4048 392H58.7003L54.6662 381.091H56.4844L59.4957 389.784H59.6094L62.6207 381.091H64.4389ZM70.8345 392.227C69.7834 392.227 68.8767 391.995 68.1143 391.531C67.3568 391.062 66.772 390.409 66.3601 389.571C65.9529 388.728 65.7493 387.748 65.7493 386.631C65.7493 385.513 65.9529 384.528 66.3601 383.676C66.772 382.819 67.3449 382.152 68.0788 381.673C68.8175 381.19 69.6792 380.949 70.6641 380.949C71.2322 380.949 71.7933 381.044 72.3473 381.233C72.9013 381.422 73.4055 381.73 73.8601 382.156C74.3146 382.578 74.6768 383.136 74.9467 383.832C75.2166 384.528 75.3516 385.385 75.3516 386.403V387.114H66.9425V385.665H73.647C73.647 385.049 73.5239 384.5 73.2777 384.017C73.0362 383.534 72.6906 383.153 72.2408 382.874C71.7957 382.594 71.2701 382.455 70.6641 382.455C69.9964 382.455 69.4188 382.62 68.9311 382.952C68.4482 383.278 68.0765 383.705 67.8161 384.23C67.5556 384.756 67.4254 385.319 67.4254 385.92V386.886C67.4254 387.71 67.5675 388.409 67.8516 388.982C68.1404 389.55 68.5405 389.983 69.0518 390.281C69.5632 390.575 70.1574 390.722 70.8345 390.722C71.2749 390.722 71.6726 390.66 72.0277 390.537C72.3875 390.409 72.6977 390.22 72.9581 389.969C73.2185 389.713 73.4197 389.396 73.5618 389.017L75.1811 389.472C75.0107 390.021 74.7242 390.504 74.3217 390.92C73.9193 391.332 73.4221 391.654 72.8303 391.886C72.2384 392.114 71.5732 392.227 70.8345 392.227ZM77.9013 392V381.091H79.5206V382.739H79.6342C79.8331 382.199 80.1929 381.761 80.7138 381.425C81.2346 381.089 81.8217 380.92 82.4751 380.92C82.5982 380.92 82.7521 380.923 82.9368 380.928C83.1214 380.932 83.2611 380.939 83.3558 380.949V382.653C83.299 382.639 83.1688 382.618 82.9652 382.589C82.7663 382.556 82.5556 382.54 82.3331 382.54C81.8028 382.54 81.3293 382.651 80.9126 382.874C80.5007 383.091 80.174 383.394 79.9325 383.783C79.6958 384.166 79.5774 384.604 79.5774 385.097V392H77.9013ZM85.57 392V377.455H87.2461V382.824H87.3881C87.5112 382.634 87.6817 382.393 87.8995 382.099C88.122 381.801 88.4393 381.536 88.8512 381.304C89.2679 381.067 89.8313 380.949 90.5415 380.949C91.4601 380.949 92.2698 381.179 92.9705 381.638C93.6713 382.097 94.2182 382.748 94.6112 383.591C95.0041 384.434 95.2006 385.428 95.2006 386.574C95.2006 387.729 95.0041 388.731 94.6112 389.578C94.2182 390.421 93.6737 391.074 92.9776 391.538C92.2816 391.998 91.479 392.227 90.57 392.227C89.8692 392.227 89.3081 392.111 88.8867 391.879C88.4653 391.643 88.141 391.375 87.9137 391.077C87.6864 390.774 87.5112 390.523 87.3881 390.324H87.1893V392H85.57ZM87.2177 386.545C87.2177 387.369 87.3384 388.096 87.5799 388.726C87.8214 389.351 88.1741 389.841 88.6381 390.196C89.1022 390.546 89.6703 390.722 90.3427 390.722C91.0434 390.722 91.6282 390.537 92.0969 390.168C92.5704 389.794 92.9255 389.292 93.1623 388.662C93.4038 388.027 93.5245 387.322 93.5245 386.545C93.5245 385.778 93.4061 385.087 93.1694 384.472C92.9374 383.851 92.5846 383.361 92.1112 383.001C91.6424 382.637 91.0529 382.455 90.3427 382.455C89.6609 382.455 89.0879 382.627 88.6239 382.973C88.1599 383.314 87.8095 383.792 87.5728 384.408C87.3361 385.018 87.2177 385.731 87.2177 386.545Z" fill="white"/>
<line x1="15" y1="136.5" x2="962.001" y2="136.5" stroke="#2E4529" stroke-width="3"/>
<line x1="15" y1="275.5" x2="962.001" y2="275.5" stroke="#2E4529" stroke-width="3"/>
<line x1="15" y1="346.5" x2="962.001" y2="346.5" stroke="#2E4529" stroke-width="3"/>
<line x1="15" y1="206.5" x2="962.001" y2="206.5" stroke="#2E4529" stroke-width="3"/>
<path d="M952.573 75.7273V83H951.692V76.6506H951.65L949.874 77.8295V76.9347L951.692 75.7273H952.573ZM957.037 83.0994C956.502 83.0994 956.046 82.9538 955.67 82.6626C955.293 82.3691 955.006 81.9441 954.807 81.3878C954.608 80.8291 954.508 80.1544 954.508 79.3636C954.508 78.5777 954.608 77.9065 954.807 77.3501C955.008 76.7914 955.297 76.3653 955.673 76.0717C956.052 75.7758 956.507 75.6278 957.037 75.6278C957.567 75.6278 958.021 75.7758 958.397 76.0717C958.776 76.3653 959.065 76.7914 959.263 77.3501C959.465 77.9065 959.565 78.5777 959.565 79.3636C959.565 80.1544 959.466 80.8291 959.267 81.3878C959.068 81.9441 958.78 82.3691 958.404 82.6626C958.028 82.9538 957.572 83.0994 957.037 83.0994ZM957.037 82.3182C957.567 82.3182 957.979 82.0625 958.273 81.5511C958.566 81.0398 958.713 80.3106 958.713 79.3636C958.713 78.7339 958.646 78.1977 958.511 77.755C958.378 77.3123 958.186 76.9749 957.935 76.7429C957.687 76.5109 957.387 76.3949 957.037 76.3949C956.511 76.3949 956.101 76.6541 955.805 77.1726C955.509 77.6887 955.361 78.419 955.361 79.3636C955.361 79.9934 955.427 80.5284 955.56 80.9688C955.692 81.4091 955.883 81.7441 956.131 81.9737C956.382 82.2034 956.684 82.3182 957.037 82.3182Z" fill="#C2C7C2"/>
<path d="M954.511 130.099C953.976 130.099 953.52 129.954 953.144 129.663C952.768 129.369 952.48 128.944 952.281 128.388C952.082 127.829 951.983 127.154 951.983 126.364C951.983 125.578 952.082 124.906 952.281 124.35C952.482 123.791 952.771 123.365 953.148 123.072C953.526 122.776 953.981 122.628 954.511 122.628C955.041 122.628 955.495 122.776 955.871 123.072C956.25 123.365 956.539 123.791 956.738 124.35C956.939 124.906 957.04 125.578 957.04 126.364C957.04 127.154 956.94 127.829 956.741 128.388C956.542 128.944 956.255 129.369 955.878 129.663C955.502 129.954 955.046 130.099 954.511 130.099ZM954.511 129.318C955.041 129.318 955.453 129.062 955.747 128.551C956.041 128.04 956.187 127.311 956.187 126.364C956.187 125.734 956.12 125.198 955.985 124.755C955.852 124.312 955.661 123.975 955.41 123.743C955.161 123.511 954.862 123.395 954.511 123.395C953.986 123.395 953.575 123.654 953.279 124.173C952.983 124.689 952.835 125.419 952.835 126.364C952.835 126.993 952.901 127.528 953.034 127.969C953.166 128.409 953.357 128.744 953.606 128.974C953.857 129.203 954.158 129.318 954.511 129.318Z" fill="#C2C7C2"/>
<path d="M135.31 75.7273V83H134.429V76.6506H134.386L132.611 77.8295V76.9347L134.429 75.7273H135.31ZM139.773 83.0994C139.238 83.0994 138.783 82.9538 138.406 82.6626C138.03 82.3691 137.742 81.9441 137.543 81.3878C137.344 80.8291 137.245 80.1544 137.245 79.3636C137.245 78.5777 137.344 77.9065 137.543 77.3501C137.745 76.7914 138.033 76.3653 138.41 76.0717C138.789 75.7758 139.243 75.6278 139.773 75.6278C140.304 75.6278 140.757 75.7758 141.134 76.0717C141.512 76.3653 141.801 76.7914 142 77.3501C142.201 77.9065 142.302 78.5777 142.302 79.3636C142.302 80.1544 142.202 80.8291 142.004 81.3878C141.805 81.9441 141.517 82.3691 141.141 82.6626C140.764 82.9538 140.308 83.0994 139.773 83.0994ZM139.773 82.3182C140.304 82.3182 140.716 82.0625 141.009 81.5511C141.303 81.0398 141.45 80.3106 141.45 79.3636C141.45 78.7339 141.382 78.1977 141.247 77.755C141.115 77.3123 140.923 76.9749 140.672 76.7429C140.423 76.5109 140.124 76.3949 139.773 76.3949C139.248 76.3949 138.837 76.6541 138.541 77.1726C138.245 77.6887 138.097 78.419 138.097 79.3636C138.097 79.9934 138.164 80.5284 138.296 80.9688C138.429 81.4091 138.619 81.7441 138.868 81.9737C139.119 82.2034 139.421 82.3182 139.773 82.3182Z" fill="#C2C7C2"/>
<path d="M140.432 130.099C139.897 130.099 139.441 129.954 139.065 129.663C138.688 129.369 138.401 128.944 138.202 128.388C138.003 127.829 137.903 127.154 137.903 126.364C137.903 125.578 138.003 124.906 138.202 124.35C138.403 123.791 138.692 123.365 139.068 123.072C139.447 122.776 139.902 122.628 140.432 122.628C140.962 122.628 141.416 122.776 141.792 123.072C142.171 123.365 142.46 123.791 142.658 124.35C142.86 124.906 142.96 125.578 142.96 126.364C142.96 127.154 142.861 127.829 142.662 128.388C142.463 128.944 142.176 129.369 141.799 129.663C141.423 129.954 140.967 130.099 140.432 130.099ZM140.432 129.318C140.962 129.318 141.374 129.062 141.668 128.551C141.961 128.04 142.108 127.311 142.108 126.364C142.108 125.734 142.041 125.198 141.906 124.755C141.773 124.312 141.581 123.975 141.33 123.743C141.082 123.511 140.782 123.395 140.432 123.395C139.906 123.395 139.496 123.654 139.2 124.173C138.904 124.689 138.756 125.419 138.756 126.364C138.756 126.993 138.822 127.528 138.955 127.969C139.087 128.409 139.278 128.744 139.526 128.974C139.777 129.203 140.079 129.318 140.432 129.318Z" fill="#C2C7C2"/>
<path d="M952.573 145.727V153H951.692V146.651H951.65L949.874 147.83V146.935L951.692 145.727H952.573ZM957.037 153.099C956.502 153.099 956.046 152.954 955.67 152.663C955.293 152.369 955.006 151.944 954.807 151.388C954.608 150.829 954.508 150.154 954.508 149.364C954.508 148.578 954.608 147.906 954.807 147.35C955.008 146.791 955.297 146.365 955.673 146.072C956.052 145.776 956.507 145.628 957.037 145.628C957.567 145.628 958.021 145.776 958.397 146.072C958.776 146.365 959.065 146.791 959.263 147.35C959.465 147.906 959.565 148.578 959.565 149.364C959.565 150.154 959.466 150.829 959.267 151.388C959.068 151.944 958.78 152.369 958.404 152.663C958.028 152.954 957.572 153.099 957.037 153.099ZM957.037 152.318C957.567 152.318 957.979 152.062 958.273 151.551C958.566 151.04 958.713 150.311 958.713 149.364C958.713 148.734 958.646 148.198 958.511 147.755C958.378 147.312 958.186 146.975 957.935 146.743C957.687 146.511 957.387 146.395 957.037 146.395C956.511 146.395 956.101 146.654 955.805 147.173C955.509 147.689 955.361 148.419 955.361 149.364C955.361 149.993 955.427 150.528 955.56 150.969C955.692 151.409 955.883 151.744 956.131 151.974C956.382 152.203 956.684 152.318 957.037 152.318Z" fill="#C2C7C2"/>
<path d="M954.511 200.099C953.976 200.099 953.52 199.954 953.144 199.663C952.768 199.369 952.48 198.944 952.281 198.388C952.082 197.829 951.983 197.154 951.983 196.364C951.983 195.578 952.082 194.906 952.281 194.35C952.482 193.791 952.771 193.365 953.148 193.072C953.526 192.776 953.981 192.628 954.511 192.628C955.041 192.628 955.495 192.776 955.871 193.072C956.25 193.365 956.539 193.791 956.738 194.35C956.939 194.906 957.04 195.578 957.04 196.364C957.04 197.154 956.94 197.829 956.741 198.388C956.542 198.944 956.255 199.369 955.878 199.663C955.502 199.954 955.046 200.099 954.511 200.099ZM954.511 199.318C955.041 199.318 955.453 199.062 955.747 198.551C956.041 198.04 956.187 197.311 956.187 196.364C956.187 195.734 956.12 195.198 955.985 194.755C955.852 194.312 955.661 193.975 955.41 193.743C955.161 193.511 954.862 193.395 954.511 193.395C953.986 193.395 953.575 193.654 953.279 194.173C952.983 194.689 952.835 195.419 952.835 196.364C952.835 196.993 952.901 197.528 953.034 197.969C953.166 198.409 953.357 198.744 953.606 198.974C953.857 199.203 954.158 199.318 954.511 199.318Z" fill="#C2C7C2"/>
<path d="M135.31 145.727V153H134.429V146.651H134.386L132.611 147.83V146.935L134.429 145.727H135.31ZM139.773 153.099C139.238 153.099 138.783 152.954 138.406 152.663C138.03 152.369 137.742 151.944 137.543 151.388C137.344 150.829 137.245 150.154 137.245 149.364C137.245 148.578 137.344 147.906 137.543 147.35C137.745 146.791 138.033 146.365 138.41 146.072C138.789 145.776 139.243 145.628 139.773 145.628C140.304 145.628 140.757 145.776 141.134 146.072C141.512 146.365 141.801 146.791 142 147.35C142.201 147.906 142.302 148.578 142.302 149.364C142.302 150.154 142.202 150.829 142.004 151.388C141.805 151.944 141.517 152.369 141.141 152.663C140.764 152.954 140.308 153.099 139.773 153.099ZM139.773 152.318C140.304 152.318 140.716 152.062 141.009 151.551C141.303 151.04 141.45 150.311 141.45 149.364C141.45 148.734 141.382 148.198 141.247 147.755C141.115 147.312 140.923 146.975 140.672 146.743C140.423 146.511 140.124 146.395 139.773 146.395C139.248 146.395 138.837 146.654 138.541 147.173C138.245 147.689 138.097 148.419 138.097 149.364C138.097 149.993 138.164 150.528 138.296 150.969C138.429 151.409 138.619 151.744 138.868 151.974C139.119 152.203 139.421 152.318 139.773 152.318Z" fill="#C2C7C2"/>
<path d="M140.432 200.099C139.897 200.099 139.441 199.954 139.065 199.663C138.688 199.369 138.401 198.944 138.202 198.388C138.003 197.829 137.903 197.154 137.903 196.364C137.903 195.578 138.003 194.906 138.202 194.35C138.403 193.791 138.692 193.365 139.068 193.072C139.447 192.776 139.902 192.628 140.432 192.628C140.962 192.628 141.416 192.776 141.792 193.072C142.171 193.365 142.46 193.791 142.658 194.35C142.86 194.906 142.96 195.578 142.96 196.364C142.96 197.154 142.861 197.829 142.662 198.388C142.463 198.944 142.176 199.369 141.799 199.663C141.423 199.954 140.967 200.099 140.432 200.099ZM140.432 199.318C140.962 199.318 141.374 199.062 141.668 198.551C141.961 198.04 142.108 197.311 142.108 196.364C142.108 195.734 142.041 195.198 141.906 194.755C141.773 194.312 141.581 193.975 141.33 193.743C141.082 193.511 140.782 193.395 140.432 193.395C139.906 193.395 139.496 193.654 139.2 194.173C138.904 194.689 138.756 195.419 138.756 196.364C138.756 196.993 138.822 197.528 138.955 197.969C139.087 198.409 139.278 198.744 139.526 198.974C139.777 199.203 140.079 199.318 140.432 199.318Z" fill="#C2C7C2"/>
<path d="M952.573 215.727V223H951.692V216.651H951.65L949.874 217.83V216.935L951.692 215.727H952.573ZM957.037 223.099C956.502 223.099 956.046 222.954 955.67 222.663C955.293 222.369 955.006 221.944 954.807 221.388C954.608 220.829 954.508 220.154 954.508 219.364C954.508 218.578 954.608 217.906 954.807 217.35C955.008 216.791 955.297 216.365 955.673 216.072C956.052 215.776 956.507 215.628 957.037 215.628C957.567 215.628 958.021 215.776 958.397 216.072C958.776 216.365 959.065 216.791 959.263 217.35C959.465 217.906 959.565 218.578 959.565 219.364C959.565 220.154 959.466 220.829 959.267 221.388C959.068 221.944 958.78 222.369 958.404 222.663C958.028 222.954 957.572 223.099 957.037 223.099ZM957.037 222.318C957.567 222.318 957.979 222.062 958.273 221.551C958.566 221.04 958.713 220.311 958.713 219.364C958.713 218.734 958.646 218.198 958.511 217.755C958.378 217.312 958.186 216.975 957.935 216.743C957.687 216.511 957.387 216.395 957.037 216.395C956.511 216.395 956.101 216.654 955.805 217.173C955.509 217.689 955.361 218.419 955.361 219.364C955.361 219.993 955.427 220.528 955.56 220.969C955.692 221.409 955.883 221.744 956.131 221.974C956.382 222.203 956.684 222.318 957.037 222.318Z" fill="#C2C7C2"/>
<path d="M954.511 270.099C953.976 270.099 953.52 269.954 953.144 269.663C952.768 269.369 952.48 268.944 952.281 268.388C952.082 267.829 951.983 267.154 951.983 266.364C951.983 265.578 952.082 264.906 952.281 264.35C952.482 263.791 952.771 263.365 953.148 263.072C953.526 262.776 953.981 262.628 954.511 262.628C955.041 262.628 955.495 262.776 955.871 263.072C956.25 263.365 956.539 263.791 956.738 264.35C956.939 264.906 957.04 265.578 957.04 266.364C957.04 267.154 956.94 267.829 956.741 268.388C956.542 268.944 956.255 269.369 955.878 269.663C955.502 269.954 955.046 270.099 954.511 270.099ZM954.511 269.318C955.041 269.318 955.453 269.062 955.747 268.551C956.041 268.04 956.187 267.311 956.187 266.364C956.187 265.734 956.12 265.198 955.985 264.755C955.852 264.312 955.661 263.975 955.41 263.743C955.161 263.511 954.862 263.395 954.511 263.395C953.986 263.395 953.575 263.654 953.279 264.173C952.983 264.689 952.835 265.419 952.835 266.364C952.835 266.993 952.901 267.528 953.034 267.969C953.166 268.409 953.357 268.744 953.606 268.974C953.857 269.203 954.158 269.318 954.511 269.318Z" fill="#C2C7C2"/>
<path d="M135.31 215.727V223H134.429V216.651H134.386L132.611 217.83V216.935L134.429 215.727H135.31ZM139.773 223.099C139.238 223.099 138.783 222.954 138.406 222.663C138.03 222.369 137.742 221.944 137.543 221.388C137.344 220.829 137.245 220.154 137.245 219.364C137.245 218.578 137.344 217.906 137.543 217.35C137.745 216.791 138.033 216.365 138.41 216.072C138.789 215.776 139.243 215.628 139.773 215.628C140.304 215.628 140.757 215.776 141.134 216.072C141.512 216.365 141.801 216.791 142 217.35C142.201 217.906 142.302 218.578 142.302 219.364C142.302 220.154 142.202 220.829 142.004 221.388C141.805 221.944 141.517 222.369 141.141 222.663C140.764 222.954 140.308 223.099 139.773 223.099ZM139.773 222.318C140.304 222.318 140.716 222.062 141.009 221.551C141.303 221.04 141.45 220.311 141.45 219.364C141.45 218.734 141.382 218.198 141.247 217.755C141.115 217.312 140.923 216.975 140.672 216.743C140.423 216.511 140.124 216.395 139.773 216.395C139.248 216.395 138.837 216.654 138.541 217.173C138.245 217.689 138.097 218.419 138.097 219.364C138.097 219.993 138.164 220.528 138.296 220.969C138.429 221.409 138.619 221.744 138.868 221.974C139.119 222.203 139.421 222.318 139.773 222.318Z" fill="#C2C7C2"/>
<path d="M140.432 270.099C139.897 270.099 139.441 269.954 139.065 269.663C138.688 269.369 138.401 268.944 138.202 268.388C138.003 267.829 137.903 267.154 137.903 266.364C137.903 265.578 138.003 264.906 138.202 264.35C138.403 263.791 138.692 263.365 139.068 263.072C139.447 262.776 139.902 262.628 140.432 262.628C140.962 262.628 141.416 262.776 141.792 263.072C142.171 263.365 142.46 263.791 142.658 264.35C142.86 264.906 142.96 265.578 142.96 266.364C142.96 267.154 142.861 267.829 142.662 268.388C142.463 268.944 142.176 269.369 141.799 269.663C141.423 269.954 140.967 270.099 140.432 270.099ZM140.432 269.318C140.962 269.318 141.374 269.062 141.668 268.551C141.961 268.04 142.108 267.311 142.108 266.364C142.108 265.734 142.041 265.198 141.906 264.755C141.773 264.312 141.581 263.975 141.33 263.743C141.082 263.511 140.782 263.395 140.432 263.395C139.906 263.395 139.496 263.654 139.2 264.173C138.904 264.689 138.756 265.419 138.756 266.364C138.756 266.993 138.822 267.528 138.955 267.969C139.087 268.409 139.278 268.744 139.526 268.974C139.777 269.203 140.079 269.318 140.432 269.318Z" fill="#C2C7C2"/>
<path d="M952.573 285.727V293H951.692V286.651H951.65L949.874 287.83V286.935L951.692 285.727H952.573ZM957.037 293.099C956.502 293.099 956.046 292.954 955.67 292.663C955.293 292.369 955.006 291.944 954.807 291.388C954.608 290.829 954.508 290.154 954.508 289.364C954.508 288.578 954.608 287.906 954.807 287.35C955.008 286.791 955.297 286.365 955.673 286.072C956.052 285.776 956.507 285.628 957.037 285.628C957.567 285.628 958.021 285.776 958.397 286.072C958.776 286.365 959.065 286.791 959.263 287.35C959.465 287.906 959.565 288.578 959.565 289.364C959.565 290.154 959.466 290.829 959.267 291.388C959.068 291.944 958.78 292.369 958.404 292.663C958.028 292.954 957.572 293.099 957.037 293.099ZM957.037 292.318C957.567 292.318 957.979 292.062 958.273 291.551C958.566 291.04 958.713 290.311 958.713 289.364C958.713 288.734 958.646 288.198 958.511 287.755C958.378 287.312 958.186 286.975 957.935 286.743C957.687 286.511 957.387 286.395 957.037 286.395C956.511 286.395 956.101 286.654 955.805 287.173C955.509 287.689 955.361 288.419 955.361 289.364C955.361 289.993 955.427 290.528 955.56 290.969C955.692 291.409 955.883 291.744 956.131 291.974C956.382 292.203 956.684 292.318 957.037 292.318Z" fill="#C2C7C2"/>
<path d="M954.511 340.099C953.976 340.099 953.52 339.954 953.144 339.663C952.768 339.369 952.48 338.944 952.281 338.388C952.082 337.829 951.983 337.154 951.983 336.364C951.983 335.578 952.082 334.906 952.281 334.35C952.482 333.791 952.771 333.365 953.148 333.072C953.526 332.776 953.981 332.628 954.511 332.628C955.041 332.628 955.495 332.776 955.871 333.072C956.25 333.365 956.539 333.791 956.738 334.35C956.939 334.906 957.04 335.578 957.04 336.364C957.04 337.154 956.94 337.829 956.741 338.388C956.542 338.944 956.255 339.369 955.878 339.663C955.502 339.954 955.046 340.099 954.511 340.099ZM954.511 339.318C955.041 339.318 955.453 339.062 955.747 338.551C956.041 338.04 956.187 337.311 956.187 336.364C956.187 335.734 956.12 335.198 955.985 334.755C955.852 334.312 955.661 333.975 955.41 333.743C955.161 333.511 954.862 333.395 954.511 333.395C953.986 333.395 953.575 333.654 953.279 334.173C952.983 334.689 952.835 335.419 952.835 336.364C952.835 336.993 952.901 337.528 953.034 337.969C953.166 338.409 953.357 338.744 953.606 338.974C953.857 339.203 954.158 339.318 954.511 339.318Z" fill="#C2C7C2"/>
<path d="M135.31 285.727V293H134.429V286.651H134.386L132.611 287.83V286.935L134.429 285.727H135.31ZM139.773 293.099C139.238 293.099 138.783 292.954 138.406 292.663C138.03 292.369 137.742 291.944 137.543 291.388C137.344 290.829 137.245 290.154 137.245 289.364C137.245 288.578 137.344 287.906 137.543 287.35C137.745 286.791 138.033 286.365 138.41 286.072C138.789 285.776 139.243 285.628 139.773 285.628C140.304 285.628 140.757 285.776 141.134 286.072C141.512 286.365 141.801 286.791 142 287.35C142.201 287.906 142.302 288.578 142.302 289.364C142.302 290.154 142.202 290.829 142.004 291.388C141.805 291.944 141.517 292.369 141.141 292.663C140.764 292.954 140.308 293.099 139.773 293.099ZM139.773 292.318C140.304 292.318 140.716 292.062 141.009 291.551C141.303 291.04 141.45 290.311 141.45 289.364C141.45 288.734 141.382 288.198 141.247 287.755C141.115 287.312 140.923 286.975 140.672 286.743C140.423 286.511 140.124 286.395 139.773 286.395C139.248 286.395 138.837 286.654 138.541 287.173C138.245 287.689 138.097 288.419 138.097 289.364C138.097 289.993 138.164 290.528 138.296 290.969C138.429 291.409 138.619 291.744 138.868 291.974C139.119 292.203 139.421 292.318 139.773 292.318Z" fill="#C2C7C2"/>
<path d="M140.432 340.099C139.897 340.099 139.441 339.954 139.065 339.663C138.688 339.369 138.401 338.944 138.202 338.388C138.003 337.829 137.903 337.154 137.903 336.364C137.903 335.578 138.003 334.906 138.202 334.35C138.403 333.791 138.692 333.365 139.068 333.072C139.447 332.776 139.902 332.628 140.432 332.628C140.962 332.628 141.416 332.776 141.792 333.072C142.171 333.365 142.46 333.791 142.658 334.35C142.86 334.906 142.96 335.578 142.96 336.364C142.96 337.154 142.861 337.829 142.662 338.388C142.463 338.944 142.176 339.369 141.799 339.663C141.423 339.954 140.967 340.099 140.432 340.099ZM140.432 339.318C140.962 339.318 141.374 339.062 141.668 338.551C141.961 338.04 142.108 337.311 142.108 336.364C142.108 335.734 142.041 335.198 141.906 334.755C141.773 334.312 141.581 333.975 141.33 333.743C141.082 333.511 140.782 333.395 140.432 333.395C139.906 333.395 139.496 333.654 139.2 334.173C138.904 334.689 138.756 335.419 138.756 336.364C138.756 336.993 138.822 337.528 138.955 337.969C139.087 338.409 139.278 338.744 139.526 338.974C139.777 339.203 140.079 339.318 140.432 339.318Z" fill="#C2C7C2"/>
<path d="M952.573 355.727V363H951.692V356.651H951.65L949.874 357.83V356.935L951.692 355.727H952.573ZM957.037 363.099C956.502 363.099 956.046 362.954 955.67 362.663C955.293 362.369 955.006 361.944 954.807 361.388C954.608 360.829 954.508 360.154 954.508 359.364C954.508 358.578 954.608 357.906 954.807 357.35C955.008 356.791 955.297 356.365 955.673 356.072C956.052 355.776 956.507 355.628 957.037 355.628C957.567 355.628 958.021 355.776 958.397 356.072C958.776 356.365 959.065 356.791 959.263 357.35C959.465 357.906 959.565 358.578 959.565 359.364C959.565 360.154 959.466 360.829 959.267 361.388C959.068 361.944 958.78 362.369 958.404 362.663C958.028 362.954 957.572 363.099 957.037 363.099ZM957.037 362.318C957.567 362.318 957.979 362.062 958.273 361.551C958.566 361.04 958.713 360.311 958.713 359.364C958.713 358.734 958.646 358.198 958.511 357.755C958.378 357.312 958.186 356.975 957.935 356.743C957.687 356.511 957.387 356.395 957.037 356.395C956.511 356.395 956.101 356.654 955.805 357.173C955.509 357.689 955.361 358.419 955.361 359.364C955.361 359.993 955.427 360.528 955.56 360.969C955.692 361.409 955.883 361.744 956.131 361.974C956.382 362.203 956.684 362.318 957.037 362.318Z" fill="#C2C7C2"/>
<path d="M954.511 410.099C953.976 410.099 953.52 409.954 953.144 409.663C952.768 409.369 952.48 408.944 952.281 408.388C952.082 407.829 951.983 407.154 951.983 406.364C951.983 405.578 952.082 404.906 952.281 404.35C952.482 403.791 952.771 403.365 953.148 403.072C953.526 402.776 953.981 402.628 954.511 402.628C955.041 402.628 955.495 402.776 955.871 403.072C956.25 403.365 956.539 403.791 956.738 404.35C956.939 404.906 957.04 405.578 957.04 406.364C957.04 407.154 956.94 407.829 956.741 408.388C956.542 408.944 956.255 409.369 955.878 409.663C955.502 409.954 955.046 410.099 954.511 410.099ZM954.511 409.318C955.041 409.318 955.453 409.062 955.747 408.551C956.041 408.04 956.187 407.311 956.187 406.364C956.187 405.734 956.12 405.198 955.985 404.755C955.852 404.312 955.661 403.975 955.41 403.743C955.161 403.511 954.862 403.395 954.511 403.395C953.986 403.395 953.575 403.654 953.279 404.173C952.983 404.689 952.835 405.419 952.835 406.364C952.835 406.993 952.901 407.528 953.034 407.969C953.166 408.409 953.357 408.744 953.606 408.974C953.857 409.203 954.158 409.318 954.511 409.318Z" fill="#C2C7C2"/>
<path d="M135.31 355.727V363H134.429V356.651H134.386L132.611 357.83V356.935L134.429 355.727H135.31ZM139.773 363.099C139.238 363.099 138.783 362.954 138.406 362.663C138.03 362.369 137.742 361.944 137.543 361.388C137.344 360.829 137.245 360.154 137.245 359.364C137.245 358.578 137.344 357.906 137.543 357.35C137.745 356.791 138.033 356.365 138.41 356.072C138.789 355.776 139.243 355.628 139.773 355.628C140.304 355.628 140.757 355.776 141.134 356.072C141.512 356.365 141.801 356.791 142 357.35C142.201 357.906 142.302 358.578 142.302 359.364C142.302 360.154 142.202 360.829 142.004 361.388C141.805 361.944 141.517 362.369 141.141 362.663C140.764 362.954 140.308 363.099 139.773 363.099ZM139.773 362.318C140.304 362.318 140.716 362.062 141.009 361.551C141.303 361.04 141.45 360.311 141.45 359.364C141.45 358.734 141.382 358.198 141.247 357.755C141.115 357.312 140.923 356.975 140.672 356.743C140.423 356.511 140.124 356.395 139.773 356.395C139.248 356.395 138.837 356.654 138.541 357.173C138.245 357.689 138.097 358.419 138.097 359.364C138.097 359.993 138.164 360.528 138.296 360.969C138.429 361.409 138.619 361.744 138.868 361.974C139.119 362.203 139.421 362.318 139.773 362.318Z" fill="#C2C7C2"/>
<path d="M140.432 410.099C139.897 410.099 139.441 409.954 139.065 409.663C138.688 409.369 138.401 408.944 138.202 408.388C138.003 407.829 137.903 407.154 137.903 406.364C137.903 405.578 138.003 404.906 138.202 404.35C138.403 403.791 138.692 403.365 139.068 403.072C139.447 402.776 139.902 402.628 140.432 402.628C140.962 402.628 141.416 402.776 141.792 403.072C142.171 403.365 142.46 403.791 142.658 404.35C142.86 404.906 142.96 405.578 142.96 406.364C142.96 407.154 142.861 407.829 142.662 408.388C142.463 408.944 142.176 409.369 141.799 409.663C141.423 409.954 140.967 410.099 140.432 410.099ZM140.432 409.318C140.962 409.318 141.374 409.062 141.668 408.551C141.961 408.04 142.108 407.311 142.108 406.364C142.108 405.734 142.041 405.198 141.906 404.755C141.773 404.312 141.581 403.975 141.33 403.743C141.082 403.511 140.782 403.395 140.432 403.395C139.906 403.395 139.496 403.654 139.2 404.173C138.904 404.689 138.756 405.419 138.756 406.364C138.756 406.993 138.822 407.528 138.955 407.969C139.087 408.409 139.278 408.744 139.526 408.974C139.777 409.203 140.079 409.318 140.432 409.318Z" fill="#C2C7C2"/>
<path d="M36.25 253H31.7614V238.455H36.4489C37.8598 238.455 39.0672 238.746 40.071 239.328C41.0748 239.906 41.8442 240.737 42.3793 241.821C42.9143 242.901 43.1818 244.193 43.1818 245.699C43.1818 247.214 42.9119 248.518 42.3722 249.612C41.8324 250.701 41.0464 251.539 40.0142 252.126C38.982 252.709 37.7273 253 36.25 253ZM33.5227 251.438H36.1364C37.339 251.438 38.3357 251.205 39.1264 250.741C39.9171 250.277 40.5066 249.617 40.8949 248.76C41.2831 247.903 41.4773 246.883 41.4773 245.699C41.4773 244.525 41.2855 243.514 40.902 242.666C40.5185 241.814 39.9455 241.161 39.1832 240.706C38.4209 240.247 37.4716 240.017 36.3352 240.017H33.5227V251.438ZM45.9091 253V242.091H47.5852V253H45.9091ZM46.7614 240.273C46.4347 240.273 46.1529 240.161 45.9162 239.939C45.6842 239.716 45.5682 239.449 45.5682 239.136C45.5682 238.824 45.6842 238.556 45.9162 238.334C46.1529 238.111 46.4347 238 46.7614 238C47.0881 238 47.3674 238.111 47.5994 238.334C47.8362 238.556 47.9545 238.824 47.9545 239.136C47.9545 239.449 47.8362 239.716 47.5994 239.939C47.3674 240.161 47.0881 240.273 46.7614 240.273ZM58.3825 244.534L56.8768 244.96C56.7821 244.709 56.6424 244.465 56.4577 244.229C56.2778 243.987 56.0316 243.788 55.7191 243.632C55.4066 243.476 55.0065 243.398 54.5188 243.398C53.8512 243.398 53.2949 243.552 52.8498 243.859C52.4094 244.162 52.1893 244.548 52.1893 245.017C52.1893 245.434 52.3408 245.763 52.6438 246.004C52.9469 246.246 53.4203 246.447 54.0643 246.608L55.6836 247.006C56.659 247.242 57.3858 247.605 57.864 248.092C58.3422 248.575 58.5813 249.198 58.5813 249.96C58.5813 250.585 58.4014 251.144 58.0415 251.636C57.6864 252.129 57.1893 252.517 56.5501 252.801C55.9109 253.085 55.1675 253.227 54.32 253.227C53.2073 253.227 52.2863 252.986 51.5572 252.503C50.828 252.02 50.3664 251.314 50.1722 250.386L51.7631 249.989C51.9147 250.576 52.2011 251.016 52.6225 251.31C53.0487 251.603 53.605 251.75 54.2915 251.75C55.0728 251.75 55.6931 251.584 56.1523 251.253C56.6164 250.917 56.8484 250.514 56.8484 250.045C56.8484 249.667 56.7158 249.349 56.4506 249.094C56.1855 248.833 55.7783 248.639 55.229 248.511L53.4109 248.085C52.4118 247.848 51.6779 247.482 51.2092 246.984C50.7451 246.482 50.5131 245.855 50.5131 245.102C50.5131 244.487 50.686 243.942 51.0316 243.469C51.382 242.995 51.8578 242.624 52.4592 242.354C53.0652 242.084 53.7518 241.949 54.5188 241.949C55.5984 241.949 56.4459 242.186 57.0614 242.659C57.6817 243.133 58.122 243.758 58.3825 244.534ZM65.8487 242.091V243.511H60.1953V242.091H65.8487ZM61.843 239.477H63.5192V249.875C63.5192 250.348 63.5878 250.704 63.7251 250.94C63.8672 251.172 64.0471 251.329 64.2649 251.409C64.4875 251.485 64.7218 251.523 64.968 251.523C65.1527 251.523 65.3042 251.513 65.4226 251.494C65.541 251.471 65.6357 251.452 65.7067 251.438L66.0476 252.943C65.9339 252.986 65.7753 253.028 65.5717 253.071C65.3681 253.118 65.1101 253.142 64.7976 253.142C64.3241 253.142 63.8601 253.04 63.4055 252.837C62.9557 252.633 62.5817 252.323 62.2834 251.906C61.9898 251.49 61.843 250.964 61.843 250.33V239.477ZM72.6847 253.227C71.6998 253.227 70.8357 252.993 70.0923 252.524C69.3537 252.055 68.776 251.4 68.3594 250.557C67.9474 249.714 67.7415 248.729 67.7415 247.602C67.7415 246.466 67.9474 245.474 68.3594 244.626C68.776 243.779 69.3537 243.121 70.0923 242.652C70.8357 242.183 71.6998 241.949 72.6847 241.949C73.6695 241.949 74.5313 242.183 75.2699 242.652C76.0133 243.121 76.5909 243.779 77.0028 244.626C77.4195 245.474 77.6278 246.466 77.6278 247.602C77.6278 248.729 77.4195 249.714 77.0028 250.557C76.5909 251.4 76.0133 252.055 75.2699 252.524C74.5313 252.993 73.6695 253.227 72.6847 253.227ZM72.6847 251.722C73.4328 251.722 74.0483 251.53 74.5312 251.146C75.0142 250.763 75.3717 250.259 75.6037 249.634C75.8357 249.009 75.9517 248.331 75.9517 247.602C75.9517 246.873 75.8357 246.194 75.6037 245.564C75.3717 244.934 75.0142 244.425 74.5312 244.037C74.0483 243.649 73.4328 243.455 72.6847 243.455C71.9366 243.455 71.321 243.649 70.8381 244.037C70.3551 244.425 69.9976 244.934 69.7656 245.564C69.5336 246.194 69.4176 246.873 69.4176 247.602C69.4176 248.331 69.5336 249.009 69.7656 249.634C69.9976 250.259 70.3551 250.763 70.8381 251.146C71.321 251.53 71.9366 251.722 72.6847 251.722ZM80.1864 253V242.091H81.8058V243.739H81.9194C82.1183 243.199 82.4781 242.761 82.9989 242.425C83.5198 242.089 84.1069 241.92 84.7603 241.92C84.8834 241.92 85.0373 241.923 85.2219 241.928C85.4066 241.932 85.5463 241.939 85.641 241.949V243.653C85.5842 243.639 85.454 243.618 85.2504 243.589C85.0515 243.556 84.8408 243.54 84.6183 243.54C84.088 243.54 83.6145 243.651 83.1978 243.874C82.7859 244.091 82.4592 244.394 82.2177 244.783C81.9809 245.166 81.8626 245.604 81.8626 246.097V253H80.1864ZM93.0558 242.091V243.511H87.4023V242.091H93.0558ZM89.0501 239.477H90.7262V249.875C90.7262 250.348 90.7949 250.704 90.9322 250.94C91.0742 251.172 91.2541 251.329 91.4719 251.409C91.6945 251.485 91.9289 251.523 92.1751 251.523C92.3597 251.523 92.5112 251.513 92.6296 251.494C92.748 251.471 92.8427 251.452 92.9137 251.438L93.2546 252.943C93.141 252.986 92.9824 253.028 92.7788 253.071C92.5752 253.118 92.3171 253.142 92.0046 253.142C91.5311 253.142 91.0671 253.04 90.6126 252.837C90.1628 252.633 89.7887 252.323 89.4904 251.906C89.1969 251.49 89.0501 250.964 89.0501 250.33V239.477ZM95.5771 253V242.091H97.2532V253H95.5771ZM96.4293 240.273C96.1026 240.273 95.8209 240.161 95.5842 239.939C95.3522 239.716 95.2362 239.449 95.2362 239.136C95.2362 238.824 95.3522 238.556 95.5842 238.334C95.8209 238.111 96.1026 238 96.4293 238C96.756 238 97.0354 238.111 97.2674 238.334C97.5041 238.556 97.6225 238.824 97.6225 239.136C97.6225 239.449 97.5041 239.716 97.2674 239.939C97.0354 240.161 96.756 240.273 96.4293 240.273ZM104.755 253.227C103.77 253.227 102.906 252.993 102.163 252.524C101.424 252.055 100.846 251.4 100.43 250.557C100.018 249.714 99.8118 248.729 99.8118 247.602C99.8118 246.466 100.018 245.474 100.43 244.626C100.846 243.779 101.424 243.121 102.163 242.652C102.906 242.183 103.77 241.949 104.755 241.949C105.74 241.949 106.602 242.183 107.34 242.652C108.084 243.121 108.661 243.779 109.073 244.626C109.49 245.474 109.698 246.466 109.698 247.602C109.698 248.729 109.49 249.714 109.073 250.557C108.661 251.4 108.084 252.055 107.34 252.524C106.602 252.993 105.74 253.227 104.755 253.227ZM104.755 251.722C105.503 251.722 106.119 251.53 106.602 251.146C107.085 250.763 107.442 250.259 107.674 249.634C107.906 249.009 108.022 248.331 108.022 247.602C108.022 246.873 107.906 246.194 107.674 245.564C107.442 244.934 107.085 244.425 106.602 244.037C106.119 243.649 105.503 243.455 104.755 243.455C104.007 243.455 103.391 243.649 102.908 244.037C102.425 244.425 102.068 244.934 101.836 245.564C101.604 246.194 101.488 246.873 101.488 247.602C101.488 248.331 101.604 249.009 101.836 249.634C102.068 250.259 102.425 250.763 102.908 251.146C103.391 251.53 104.007 251.722 104.755 251.722ZM113.933 246.438V253H112.257V242.091H113.876V243.795H114.018C114.274 243.241 114.662 242.796 115.183 242.46C115.704 242.119 116.376 241.949 117.2 241.949C117.939 241.949 118.585 242.1 119.139 242.403C119.693 242.702 120.124 243.156 120.431 243.767C120.739 244.373 120.893 245.14 120.893 246.068V253H119.217V246.182C119.217 245.325 118.994 244.657 118.549 244.179C118.104 243.696 117.493 243.455 116.717 243.455C116.182 243.455 115.704 243.571 115.282 243.803C114.866 244.035 114.537 244.373 114.295 244.818C114.054 245.263 113.933 245.803 113.933 246.438Z" fill="white"/>
<rect x="195" y="418" width="40" height="9" fill="#8E9D82"/>
<rect x="144" y="418" width="40" height="9" fill="#8E9D82"/>
<rect x="705" y="418" width="40" height="9" fill="#8E9D82"/>
<rect x="858" y="418" width="40" height="9" fill="#8E9D82"/>
<rect x="756" y="418" width="40" height="9" fill="#8E9D82"/>
<rect x="246" y="418" width="40" height="9" fill="#8E9D82"/>
<rect x="399" y="418" width="40" height="9" fill="#8E9D82"/>
<rect x="348" y="418" width="40" height="9" fill="#8E9D82"/>
<rect x="807" y="418" width="40" height="9" fill="#8E9D82"/>
<rect x="501" y="418" width="40" height="9" fill="#8E9D82"/>
<rect x="297" y="418" width="40" height="9" fill="#8E9D82"/>
<rect x="450" y="418" width="40" height="9" fill="#8E9D82"/>
<rect x="603" y="418" width="40" height="9" fill="#8E9D82"/>
<rect x="552" y="418" width="40" height="9" fill="#8E9D82"/>
<rect x="909" y="418" width="40" height="9" fill="#8E9D82"/>
<rect x="654" y="418" width="40" height="9" fill="#8E9D82"/>
</svg>
