<svg width="975" height="650" viewBox="0 0 975 650" fill="none" xmlns="http://www.w3.org/2000/svg">
<rect width="975" height="650" fill="#57664C"/>
<rect x="8" y="8" width="960" height="633" fill="#4A5642"/>
<path d="M22.8636 50V20.9091H39.7386V23.2955H25.5199V34.2472H38.8438V36.6335H25.5199V47.6136H40.0227V50H22.8636ZM63.8682 20.9091L71.9222 33.5369H72.1068L80.1608 20.9091H83.3L73.9392 35.4545L83.3 50H80.1608L72.1068 37.5142H71.9222L63.8682 50H60.729L70.2318 35.4545L60.729 20.9091H63.8682ZM128.672 35.4545C128.672 38.4848 128.133 41.1222 127.053 43.3665C125.974 45.6013 124.487 47.3343 122.593 48.5653C120.708 49.7869 118.54 50.3977 116.087 50.3977C113.635 50.3977 111.461 49.7869 109.567 48.5653C107.683 47.3343 106.201 45.6013 105.121 43.3665C104.051 41.1222 103.516 38.4848 103.516 35.4545C103.516 32.4242 104.051 29.7917 105.121 27.5568C106.201 25.3125 107.688 23.5795 109.582 22.358C111.475 21.1269 113.644 20.5114 116.087 20.5114C118.54 20.5114 120.708 21.1269 122.593 22.358C124.487 23.5795 125.974 25.3125 127.053 27.5568C128.133 29.7917 128.672 32.4242 128.672 35.4545ZM126.087 35.4545C126.087 32.8504 125.652 30.6203 124.78 28.7642C123.909 26.8987 122.721 25.4735 121.215 24.4886C119.709 23.5038 118 23.0114 116.087 23.0114C114.184 23.0114 112.479 23.5038 110.974 24.4886C109.468 25.4735 108.275 26.8939 107.394 28.75C106.523 30.6061 106.087 32.8409 106.087 35.4545C106.087 38.0587 106.523 40.2888 107.394 42.1449C108.265 44.0009 109.454 45.4261 110.959 46.4205C112.465 47.4053 114.174 47.8977 116.087 47.8977C118 47.8977 119.709 47.4053 121.215 46.4205C122.73 45.4356 123.923 44.0152 124.795 42.1591C125.666 40.2936 126.097 38.0587 126.087 35.4545ZM160.419 50H151.896V20.9091H160.931C163.705 20.9091 166.077 21.4867 168.047 22.642C170.026 23.7973 171.541 25.4545 172.592 27.6136C173.644 29.7727 174.169 32.3627 174.169 35.3835C174.169 38.4328 173.629 41.0511 172.55 43.2386C171.48 45.4167 169.917 47.0881 167.862 48.2528C165.817 49.4176 163.336 50 160.419 50ZM154.553 47.6136H160.263C162.763 47.6136 164.856 47.1212 166.541 46.1364C168.227 45.1515 169.491 43.7453 170.334 41.9176C171.177 40.09 171.598 37.9119 171.598 35.3835C171.589 32.8741 171.172 30.715 170.348 28.9062C169.534 27.0975 168.322 25.7102 166.712 24.7443C165.111 23.7784 163.132 23.2955 160.774 23.2955H154.553V47.6136ZM216.797 20.9091H219.453V40.1705C219.453 42.1496 218.989 43.9205 218.061 45.483C217.133 47.036 215.84 48.2623 214.183 49.1619C212.535 50.0521 210.618 50.4972 208.43 50.4972C206.252 50.4972 204.334 50.0473 202.677 49.1477C201.02 48.2481 199.727 47.0218 198.799 45.4688C197.871 43.9157 197.407 42.1496 197.407 40.1705V20.9091H200.064V39.9858C200.064 41.5294 200.409 42.9072 201.101 44.1193C201.792 45.322 202.762 46.2689 204.012 46.9602C205.272 47.6515 206.745 47.9972 208.43 47.9972C210.116 47.9972 211.588 47.6515 212.848 46.9602C214.107 46.2689 215.078 45.322 215.76 44.1193C216.451 42.9072 216.797 41.5294 216.797 39.9858V20.9091ZM259.768 28.1818C259.607 26.5625 258.893 25.2746 257.624 24.3182C256.355 23.3617 254.759 22.8835 252.837 22.8835C251.482 22.8835 250.289 23.1155 249.257 23.5795C248.234 24.0436 247.429 24.6875 246.842 25.5114C246.265 26.3258 245.976 27.2538 245.976 28.2955C245.976 29.0625 246.142 29.7348 246.473 30.3125C246.804 30.8902 247.25 31.3873 247.808 31.804C248.376 32.2112 249.001 32.5616 249.683 32.8551C250.375 33.1487 251.071 33.3949 251.771 33.5938L254.839 34.4744C255.768 34.7301 256.696 35.0568 257.624 35.4545C258.552 35.8523 259.399 36.3542 260.166 36.9602C260.943 37.5568 261.563 38.2907 262.027 39.1619C262.5 40.0237 262.737 41.0606 262.737 42.2727C262.737 43.8258 262.335 45.2225 261.53 46.4631C260.725 47.7036 259.57 48.6884 258.064 49.4176C256.558 50.1373 254.754 50.4972 252.652 50.4972C250.673 50.4972 248.954 50.1705 247.496 49.517C246.037 48.8542 244.892 47.9403 244.058 46.7756C243.225 45.6108 242.756 44.2614 242.652 42.7273H245.379C245.474 43.8731 245.853 44.8437 246.516 45.6392C247.179 46.4347 248.04 47.0407 249.101 47.4574C250.161 47.8646 251.345 48.0682 252.652 48.0682C254.101 48.0682 255.389 47.8267 256.516 47.3438C257.652 46.8513 258.542 46.1695 259.186 45.2983C259.839 44.4176 260.166 43.3949 260.166 42.2301C260.166 41.2453 259.911 40.4214 259.399 39.7585C258.888 39.0862 258.173 38.5227 257.254 38.0682C256.345 37.6136 255.289 37.2112 254.087 36.8608L250.607 35.8381C248.324 35.1562 246.554 34.214 245.294 33.0114C244.035 31.8087 243.405 30.2746 243.405 28.4091C243.405 26.8466 243.821 25.4735 244.655 24.2898C245.498 23.0966 246.634 22.1686 248.064 21.5057C249.503 20.8333 251.118 20.4972 252.908 20.4972C254.716 20.4972 256.317 20.8286 257.709 21.4915C259.101 22.1544 260.204 23.0682 261.018 24.233C261.842 25.3883 262.283 26.7045 262.339 28.1818H259.768Z" fill="white"/>
<line x1="8" y1="416.5" x2="968" y2="416.5" stroke="#65735A"/>
<line x1="8" y1="415.5" x2="968" y2="415.5" stroke="#3E4737"/>
<line x1="8" y1="63.5" x2="968" y2="63.5" stroke="#65735A"/>
<line x1="8" y1="62.5" x2="968" y2="62.5" stroke="#3E4737"/>
<line x1="8" y1="417.5" x2="968" y2="417.5" stroke="#8D9A83"/>
<line x1="8" y1="64.5" x2="968" y2="64.5" stroke="#8D9A83"/>
<path d="M41.7045 104C41.5483 103.522 41.3423 103.093 41.0866 102.714C40.8357 102.331 40.535 102.004 40.1847 101.734C39.839 101.464 39.446 101.259 39.0057 101.116C38.5653 100.974 38.0824 100.903 37.5568 100.903C36.6951 100.903 35.9115 101.126 35.206 101.571C34.5005 102.016 33.9394 102.672 33.5227 103.538C33.1061 104.405 32.8977 105.468 32.8977 106.727C32.8977 107.987 33.1084 109.05 33.5298 109.916C33.9512 110.783 34.5218 111.438 35.2415 111.884C35.9612 112.329 36.7708 112.551 37.6705 112.551C38.5038 112.551 39.2377 112.374 39.8722 112.018C40.5114 111.659 41.0085 111.152 41.3636 110.499C41.7235 109.84 41.9034 109.066 41.9034 108.176L42.4432 108.29H38.0682V106.727H43.608V108.29C43.608 109.488 43.3523 110.529 42.8409 111.415C42.3343 112.3 41.6335 112.987 40.7386 113.474C39.8485 113.957 38.8258 114.199 37.6705 114.199C36.3826 114.199 35.2509 113.896 34.2756 113.29C33.3049 112.684 32.5473 111.822 32.0028 110.705C31.4631 109.587 31.1932 108.261 31.1932 106.727C31.1932 105.577 31.3471 104.542 31.6548 103.624C31.9673 102.7 32.4077 101.914 32.9759 101.266C33.544 100.617 34.2164 100.12 34.9929 99.7741C35.7694 99.4285 36.6241 99.2557 37.5568 99.2557C38.3239 99.2557 39.0388 99.3717 39.7017 99.6037C40.3693 99.831 40.9635 100.155 41.4844 100.577C42.0099 100.993 42.4479 101.493 42.7983 102.075C43.1487 102.653 43.3902 103.295 43.5227 104H41.7045ZM49.6076 114.256C48.9163 114.256 48.2889 114.125 47.7255 113.865C47.1621 113.6 46.7146 113.219 46.3832 112.722C46.0517 112.22 45.886 111.614 45.886 110.903C45.886 110.278 46.0091 109.772 46.2553 109.384C46.5015 108.991 46.8306 108.683 47.2425 108.46C47.6545 108.238 48.109 108.072 48.6062 107.963C49.1081 107.849 49.6123 107.759 50.119 107.693C50.7818 107.608 51.3192 107.544 51.7312 107.501C52.1478 107.454 52.4509 107.376 52.6403 107.267C52.8344 107.158 52.9315 106.969 52.9315 106.699V106.642C52.9315 105.941 52.7397 105.397 52.3562 105.009C51.9774 104.62 51.4021 104.426 50.6303 104.426C49.8301 104.426 49.2028 104.601 48.7482 104.952C48.2937 105.302 47.9741 105.676 47.7894 106.074L46.1985 105.506C46.4826 104.843 46.8614 104.327 47.3349 103.957C47.8131 103.583 48.3339 103.323 48.8974 103.176C49.4656 103.025 50.0243 102.949 50.5735 102.949C50.9239 102.949 51.3263 102.991 51.7809 103.077C52.2402 103.157 52.6829 103.325 53.109 103.581C53.5399 103.837 53.8974 104.223 54.1815 104.739C54.4656 105.255 54.6076 105.946 54.6076 106.812V114H52.9315V112.523H52.8462C52.7326 112.759 52.5432 113.013 52.2781 113.283C52.0129 113.553 51.6602 113.782 51.2198 113.972C50.7795 114.161 50.2421 114.256 49.6076 114.256ZM49.8633 112.75C50.5262 112.75 51.0849 112.62 51.5394 112.359C51.9987 112.099 52.3443 111.763 52.5763 111.351C52.8131 110.939 52.9315 110.506 52.9315 110.051V108.517C52.8604 108.602 52.7042 108.68 52.4627 108.751C52.226 108.818 51.9513 108.877 51.6388 108.929C51.3311 108.976 51.0304 109.019 50.7369 109.057C50.448 109.09 50.2137 109.118 50.0337 109.142C49.5981 109.199 49.1909 109.291 48.8121 109.419C48.4381 109.542 48.1351 109.729 47.9031 109.98C47.6758 110.226 47.5621 110.562 47.5621 110.989C47.5621 111.571 47.7776 112.011 48.2085 112.31C48.6441 112.603 49.1957 112.75 49.8633 112.75ZM57.6669 114V103.091H59.343V114H57.6669ZM58.5192 101.273C58.1925 101.273 57.9107 101.161 57.674 100.939C57.442 100.716 57.326 100.449 57.326 100.136C57.326 99.8239 57.442 99.5563 57.674 99.3338C57.9107 99.1113 58.1925 99 58.5192 99C58.8459 99 59.1252 99.1113 59.3572 99.3338C59.594 99.5563 59.7124 99.8239 59.7124 100.136C59.7124 100.449 59.594 100.716 59.3572 100.939C59.1252 101.161 58.8459 101.273 58.5192 101.273ZM64.0891 107.438V114H62.413V103.091H64.0323V104.795H64.1744C64.43 104.241 64.8183 103.796 65.3391 103.46C65.86 103.119 66.5323 102.949 67.3562 102.949C68.0948 102.949 68.7411 103.1 69.2951 103.403C69.8491 103.702 70.2799 104.156 70.5877 104.767C70.8955 105.373 71.0494 106.14 71.0494 107.068V114H69.3732V107.182C69.3732 106.325 69.1507 105.657 68.7056 105.179C68.2605 104.696 67.6497 104.455 66.8732 104.455C66.3382 104.455 65.86 104.571 65.4386 104.803C65.0219 105.035 64.6928 105.373 64.4513 105.818C64.2099 106.263 64.0891 106.803 64.0891 107.438Z" fill="white"/>
<path d="M31.7614 183V168.455H36.6761C37.8172 168.455 38.75 168.661 39.4744 169.072C40.2036 169.48 40.7434 170.031 41.0938 170.727C41.4441 171.423 41.6193 172.2 41.6193 173.057C41.6193 173.914 41.4441 174.693 41.0938 175.393C40.7481 176.094 40.2131 176.653 39.4886 177.07C38.7642 177.482 37.8362 177.688 36.7045 177.688H33.1818V176.125H36.6477C37.429 176.125 38.0563 175.99 38.5298 175.72C39.0033 175.45 39.3466 175.086 39.5597 174.626C39.7775 174.162 39.8864 173.639 39.8864 173.057C39.8864 172.474 39.7775 171.954 39.5597 171.494C39.3466 171.035 39.0009 170.675 38.5227 170.415C38.0445 170.15 37.41 170.017 36.6193 170.017H33.5227V183H31.7614ZM47.4396 183.256C46.7483 183.256 46.121 183.125 45.5575 182.865C44.9941 182.6 44.5466 182.219 44.2152 181.722C43.8838 181.22 43.718 180.614 43.718 179.903C43.718 179.278 43.8411 178.772 44.0874 178.384C44.3336 177.991 44.6626 177.683 45.0746 177.46C45.4865 177.238 45.9411 177.072 46.4382 176.963C46.9401 176.849 47.4444 176.759 47.951 176.693C48.6139 176.608 49.1513 176.544 49.5632 176.501C49.9799 176.454 50.2829 176.376 50.4723 176.267C50.6664 176.158 50.7635 175.969 50.7635 175.699V175.642C50.7635 174.941 50.5717 174.397 50.1882 174.009C49.8094 173.62 49.2341 173.426 48.4624 173.426C47.6622 173.426 47.0348 173.601 46.5803 173.952C46.1257 174.302 45.8061 174.676 45.6214 175.074L44.0305 174.506C44.3146 173.843 44.6934 173.327 45.1669 172.957C45.6451 172.583 46.166 172.323 46.7294 172.176C47.2976 172.025 47.8563 171.949 48.4055 171.949C48.7559 171.949 49.1584 171.991 49.6129 172.077C50.0722 172.157 50.5149 172.325 50.9411 172.581C51.3719 172.837 51.7294 173.223 52.0135 173.739C52.2976 174.255 52.4396 174.946 52.4396 175.812V183H50.7635V181.523H50.6783C50.5646 181.759 50.3752 182.013 50.1101 182.283C49.8449 182.553 49.4922 182.782 49.0518 182.972C48.6115 183.161 48.0741 183.256 47.4396 183.256ZM47.6953 181.75C48.3582 181.75 48.9169 181.62 49.3714 181.359C49.8307 181.099 50.1764 180.763 50.4084 180.351C50.6451 179.939 50.7635 179.506 50.7635 179.051V177.517C50.6925 177.602 50.5362 177.68 50.2947 177.751C50.058 177.818 49.7834 177.877 49.4709 177.929C49.1631 177.976 48.8625 178.019 48.5689 178.057C48.2801 178.09 48.0457 178.118 47.8658 178.142C47.4302 178.199 47.023 178.291 46.6442 178.419C46.2701 178.542 45.9671 178.729 45.7351 178.98C45.5078 179.226 45.3942 179.562 45.3942 179.989C45.3942 180.571 45.6096 181.011 46.0405 181.31C46.4761 181.603 47.0277 181.75 47.6953 181.75ZM57.1751 176.438V183H55.4989V172.091H57.1183V173.795H57.2603C57.516 173.241 57.9042 172.796 58.4251 172.46C58.9459 172.119 59.6183 171.949 60.4421 171.949C61.1808 171.949 61.8271 172.1 62.381 172.403C62.935 172.702 63.3659 173.156 63.6737 173.767C63.9814 174.373 64.1353 175.14 64.1353 176.068V183H62.4592V176.182C62.4592 175.325 62.2366 174.657 61.7915 174.179C61.3465 173.696 60.7357 173.455 59.9592 173.455C59.4241 173.455 58.9459 173.571 58.5245 173.803C58.1078 174.035 57.7788 174.373 57.5373 174.818C57.2958 175.263 57.1751 175.803 57.1751 176.438Z" fill="white"/>
<path d="M31.7614 322V307.455H36.6761C37.8172 307.455 38.75 307.661 39.4744 308.072C40.2036 308.48 40.7434 309.031 41.0938 309.727C41.4441 310.423 41.6193 311.2 41.6193 312.057C41.6193 312.914 41.4441 313.693 41.0938 314.393C40.7481 315.094 40.2131 315.653 39.4886 316.07C38.7642 316.482 37.8362 316.688 36.7045 316.688H33.1818V315.125H36.6477C37.429 315.125 38.0563 314.99 38.5298 314.72C39.0033 314.45 39.3466 314.086 39.5597 313.626C39.7775 313.162 39.8864 312.639 39.8864 312.057C39.8864 311.474 39.7775 310.954 39.5597 310.494C39.3466 310.035 39.0009 309.675 38.5227 309.415C38.0445 309.15 37.41 309.017 36.6193 309.017H33.5227V322H31.7614ZM45.9055 315.438V322H44.2294V307.455H45.9055V312.795H46.0476C46.3033 312.232 46.6868 311.785 47.1982 311.453C47.7143 311.117 48.4008 310.949 49.2578 310.949C50.0012 310.949 50.6522 311.098 51.2109 311.396C51.7696 311.69 52.2029 312.142 52.5107 312.753C52.8232 313.359 52.9794 314.131 52.9794 315.068V322H51.3033V315.182C51.3033 314.315 51.0784 313.645 50.6286 313.172C50.1835 312.694 49.5656 312.455 48.7749 312.455C48.2256 312.455 47.7332 312.571 47.2976 312.803C46.8667 313.035 46.5258 313.373 46.2749 313.818C46.0286 314.263 45.9055 314.803 45.9055 315.438ZM59.256 322.256C58.5647 322.256 57.9374 322.125 57.3739 321.865C56.8105 321.6 56.363 321.219 56.0316 320.722C55.7002 320.22 55.5344 319.614 55.5344 318.903C55.5344 318.278 55.6576 317.772 55.9038 317.384C56.15 316.991 56.479 316.683 56.891 316.46C57.3029 316.238 57.7575 316.072 58.2546 315.963C58.7565 315.849 59.2608 315.759 59.7674 315.693C60.4303 315.608 60.9677 315.544 61.3796 315.501C61.7963 315.454 62.0993 315.376 62.2887 315.267C62.4828 315.158 62.5799 314.969 62.5799 314.699V314.642C62.5799 313.941 62.3881 313.397 62.0046 313.009C61.6258 312.62 61.0505 312.426 60.2788 312.426C59.4786 312.426 58.8512 312.601 58.3967 312.952C57.9421 313.302 57.6225 313.676 57.4379 314.074L55.8469 313.506C56.131 312.843 56.5098 312.327 56.9833 311.957C57.4615 311.583 57.9824 311.323 58.5458 311.176C59.114 311.025 59.6727 310.949 60.2219 310.949C60.5723 310.949 60.9748 310.991 61.4293 311.077C61.8886 311.157 62.3313 311.325 62.7575 311.581C63.1883 311.837 63.5458 312.223 63.8299 312.739C64.114 313.255 64.256 313.946 64.256 314.812V322H62.5799V320.523H62.4947C62.381 320.759 62.1916 321.013 61.9265 321.283C61.6613 321.553 61.3086 321.782 60.8683 321.972C60.4279 322.161 59.8905 322.256 59.256 322.256ZM59.5117 320.75C60.1746 320.75 60.7333 320.62 61.1879 320.359C61.6471 320.099 61.9928 319.763 62.2248 319.351C62.4615 318.939 62.5799 318.506 62.5799 318.051V316.517C62.5089 316.602 62.3526 316.68 62.1112 316.751C61.8744 316.818 61.5998 316.877 61.2873 316.929C60.9795 316.976 60.6789 317.019 60.3853 317.057C60.0965 317.09 59.8621 317.118 59.6822 317.142C59.2466 317.199 58.8394 317.291 58.4606 317.419C58.0865 317.542 57.7835 317.729 57.5515 317.98C57.3242 318.226 57.2106 318.562 57.2106 318.989C57.2106 319.571 57.426 320.011 57.8569 320.31C58.2925 320.603 58.8441 320.75 59.5117 320.75ZM75.0426 313.534L73.5369 313.96C73.4422 313.709 73.3026 313.465 73.1179 313.229C72.938 312.987 72.6918 312.788 72.3793 312.632C72.0668 312.476 71.6667 312.398 71.179 312.398C70.5114 312.398 69.955 312.552 69.5099 312.859C69.0696 313.162 68.8494 313.548 68.8494 314.017C68.8494 314.434 69.0009 314.763 69.304 315.004C69.607 315.246 70.0805 315.447 70.7244 315.608L72.3438 316.006C73.3191 316.242 74.0459 316.605 74.5241 317.092C75.0024 317.575 75.2415 318.198 75.2415 318.96C75.2415 319.585 75.0616 320.144 74.7017 320.636C74.3466 321.129 73.8494 321.517 73.2102 321.801C72.571 322.085 71.8277 322.227 70.9801 322.227C69.8674 322.227 68.9465 321.986 68.2173 321.503C67.4882 321.02 67.0265 320.314 66.8324 319.386L68.4233 318.989C68.5748 319.576 68.8613 320.016 69.2827 320.31C69.7088 320.603 70.2652 320.75 70.9517 320.75C71.733 320.75 72.3532 320.584 72.8125 320.253C73.2765 319.917 73.5085 319.514 73.5085 319.045C73.5085 318.667 73.3759 318.349 73.1108 318.094C72.8456 317.833 72.4384 317.639 71.8892 317.511L70.071 317.085C69.072 316.848 68.3381 316.482 67.8693 315.984C67.4053 315.482 67.1733 314.855 67.1733 314.102C67.1733 313.487 67.3461 312.942 67.6918 312.469C68.0421 311.995 68.518 311.624 69.1193 311.354C69.7254 311.084 70.4119 310.949 71.179 310.949C72.2585 310.949 73.1061 311.186 73.7216 311.659C74.3419 312.133 74.7822 312.758 75.0426 313.534ZM82.3384 322.227C81.2873 322.227 80.3806 321.995 79.6183 321.531C78.8607 321.062 78.2759 320.409 77.864 319.571C77.4568 318.728 77.2532 317.748 77.2532 316.631C77.2532 315.513 77.4568 314.528 77.864 313.676C78.2759 312.819 78.8488 312.152 79.5827 311.673C80.3214 311.19 81.1831 310.949 82.168 310.949C82.7362 310.949 83.2972 311.044 83.8512 311.233C84.4052 311.422 84.9094 311.73 85.364 312.156C85.8185 312.578 86.1808 313.136 86.4506 313.832C86.7205 314.528 86.8555 315.385 86.8555 316.403V317.114H78.4464V315.665H85.1509C85.1509 315.049 85.0278 314.5 84.7816 314.017C84.5401 313.534 84.1945 313.153 83.7447 312.874C83.2996 312.594 82.774 312.455 82.168 312.455C81.5004 312.455 80.9227 312.62 80.435 312.952C79.9521 313.278 79.5804 313.705 79.32 314.23C79.0595 314.756 78.9293 315.319 78.9293 315.92V316.886C78.9293 317.71 79.0714 318.409 79.3555 318.982C79.6443 319.55 80.0444 319.983 80.5558 320.281C81.0671 320.575 81.6613 320.722 82.3384 320.722C82.7788 320.722 83.1765 320.66 83.5316 320.537C83.8915 320.409 84.2016 320.22 84.462 319.969C84.7224 319.713 84.9237 319.396 85.0657 319.017L86.685 319.472C86.5146 320.021 86.2281 320.504 85.8256 320.92C85.4232 321.332 84.926 321.654 84.3342 321.886C83.7423 322.114 83.0771 322.227 82.3384 322.227ZM89.4052 322V311.091H91.0245V312.739H91.1381C91.337 312.199 91.6969 311.761 92.2177 311.425C92.7385 311.089 93.3256 310.92 93.979 310.92C94.1022 310.92 94.256 310.923 94.4407 310.928C94.6254 310.932 94.765 310.939 94.8597 310.949V312.653C94.8029 312.639 94.6727 312.618 94.4691 312.589C94.2702 312.556 94.0595 312.54 93.837 312.54C93.3067 312.54 92.8332 312.651 92.4165 312.874C92.0046 313.091 91.6779 313.394 91.4364 313.783C91.1997 314.166 91.0813 314.604 91.0813 315.097V322H89.4052Z" fill="white"/>
<path d="M337.761 483V468.455H342.676C343.817 468.455 344.75 468.661 345.474 469.072C346.204 469.48 346.743 470.031 347.094 470.727C347.444 471.423 347.619 472.2 347.619 473.057C347.619 473.914 347.444 474.693 347.094 475.393C346.748 476.094 346.213 476.653 345.489 477.07C344.764 477.482 343.836 477.688 342.705 477.688H339.182V476.125H342.648C343.429 476.125 344.056 475.99 344.53 475.72C345.003 475.45 345.347 475.086 345.56 474.626C345.777 474.162 345.886 473.639 345.886 473.057C345.886 472.474 345.777 471.954 345.56 471.494C345.347 471.035 345.001 470.675 344.523 470.415C344.045 470.15 343.41 470.017 342.619 470.017H339.523V483H337.761ZM351.906 476.438V483H350.229V468.455H351.906V473.795H352.048C352.303 473.232 352.687 472.785 353.198 472.453C353.714 472.117 354.401 471.949 355.258 471.949C356.001 471.949 356.652 472.098 357.211 472.396C357.77 472.69 358.203 473.142 358.511 473.753C358.823 474.359 358.979 475.131 358.979 476.068V483H357.303V476.182C357.303 475.315 357.078 474.645 356.629 474.172C356.183 473.694 355.566 473.455 354.775 473.455C354.226 473.455 353.733 473.571 353.298 473.803C352.867 474.035 352.526 474.373 352.275 474.818C352.029 475.263 351.906 475.803 351.906 476.438ZM365.256 483.256C364.565 483.256 363.937 483.125 363.374 482.865C362.81 482.6 362.363 482.219 362.032 481.722C361.7 481.22 361.534 480.614 361.534 479.903C361.534 479.278 361.658 478.772 361.904 478.384C362.15 477.991 362.479 477.683 362.891 477.46C363.303 477.238 363.757 477.072 364.255 476.963C364.757 476.849 365.261 476.759 365.767 476.693C366.43 476.608 366.968 476.544 367.38 476.501C367.796 476.454 368.099 476.376 368.289 476.267C368.483 476.158 368.58 475.969 368.58 475.699V475.642C368.58 474.941 368.388 474.397 368.005 474.009C367.626 473.62 367.051 473.426 366.279 473.426C365.479 473.426 364.851 473.601 364.397 473.952C363.942 474.302 363.623 474.676 363.438 475.074L361.847 474.506C362.131 473.843 362.51 473.327 362.983 472.957C363.462 472.583 363.982 472.323 364.546 472.176C365.114 472.025 365.673 471.949 366.222 471.949C366.572 471.949 366.975 471.991 367.429 472.077C367.889 472.157 368.331 472.325 368.757 472.581C369.188 472.837 369.546 473.223 369.83 473.739C370.114 474.255 370.256 474.946 370.256 475.812V483H368.58V481.523H368.495C368.381 481.759 368.192 482.013 367.926 482.283C367.661 482.553 367.309 482.782 366.868 482.972C366.428 483.161 365.891 483.256 365.256 483.256ZM365.512 481.75C366.175 481.75 366.733 481.62 367.188 481.359C367.647 481.099 367.993 480.763 368.225 480.351C368.462 479.939 368.58 479.506 368.58 479.051V477.517C368.509 477.602 368.353 477.68 368.111 477.751C367.874 477.818 367.6 477.877 367.287 477.929C366.98 477.976 366.679 478.019 366.385 478.057C366.096 478.09 365.862 478.118 365.682 478.142C365.247 478.199 364.839 478.291 364.461 478.419C364.087 478.542 363.783 478.729 363.551 478.98C363.324 479.226 363.211 479.562 363.211 479.989C363.211 480.571 363.426 481.011 363.857 481.31C364.292 481.603 364.844 481.75 365.512 481.75ZM381.043 474.534L379.537 474.96C379.442 474.709 379.303 474.465 379.118 474.229C378.938 473.987 378.692 473.788 378.379 473.632C378.067 473.476 377.667 473.398 377.179 473.398C376.511 473.398 375.955 473.552 375.51 473.859C375.07 474.162 374.849 474.548 374.849 475.017C374.849 475.434 375.001 475.763 375.304 476.004C375.607 476.246 376.08 476.447 376.724 476.608L378.344 477.006C379.319 477.242 380.046 477.605 380.524 478.092C381.002 478.575 381.241 479.198 381.241 479.96C381.241 480.585 381.062 481.144 380.702 481.636C380.347 482.129 379.849 482.517 379.21 482.801C378.571 483.085 377.828 483.227 376.98 483.227C375.867 483.227 374.946 482.986 374.217 482.503C373.488 482.02 373.027 481.314 372.832 480.386L374.423 479.989C374.575 480.576 374.861 481.016 375.283 481.31C375.709 481.603 376.265 481.75 376.952 481.75C377.733 481.75 378.353 481.584 378.812 481.253C379.277 480.917 379.509 480.514 379.509 480.045C379.509 479.667 379.376 479.349 379.111 479.094C378.846 478.833 378.438 478.639 377.889 478.511L376.071 478.085C375.072 477.848 374.338 477.482 373.869 476.984C373.405 476.482 373.173 475.855 373.173 475.102C373.173 474.487 373.346 473.942 373.692 473.469C374.042 472.995 374.518 472.624 375.119 472.354C375.725 472.084 376.412 471.949 377.179 471.949C378.259 471.949 379.106 472.186 379.722 472.659C380.342 473.133 380.782 473.758 381.043 474.534ZM388.338 483.227C387.287 483.227 386.381 482.995 385.618 482.531C384.861 482.062 384.276 481.409 383.864 480.571C383.457 479.728 383.253 478.748 383.253 477.631C383.253 476.513 383.457 475.528 383.864 474.676C384.276 473.819 384.849 473.152 385.583 472.673C386.321 472.19 387.183 471.949 388.168 471.949C388.736 471.949 389.297 472.044 389.851 472.233C390.405 472.422 390.909 472.73 391.364 473.156C391.819 473.578 392.181 474.136 392.451 474.832C392.721 475.528 392.855 476.385 392.855 477.403V478.114H384.446V476.665H391.151C391.151 476.049 391.028 475.5 390.782 475.017C390.54 474.534 390.194 474.153 389.745 473.874C389.3 473.594 388.774 473.455 388.168 473.455C387.5 473.455 386.923 473.62 386.435 473.952C385.952 474.278 385.58 474.705 385.32 475.23C385.06 475.756 384.929 476.319 384.929 476.92V477.886C384.929 478.71 385.071 479.409 385.355 479.982C385.644 480.55 386.044 480.983 386.556 481.281C387.067 481.575 387.661 481.722 388.338 481.722C388.779 481.722 389.176 481.66 389.532 481.537C389.891 481.409 390.202 481.22 390.462 480.969C390.722 480.713 390.924 480.396 391.066 480.017L392.685 480.472C392.515 481.021 392.228 481.504 391.826 481.92C391.423 482.332 390.926 482.654 390.334 482.886C389.742 483.114 389.077 483.227 388.338 483.227ZM395.405 483V472.091H397.025V473.739H397.138C397.337 473.199 397.697 472.761 398.218 472.425C398.739 472.089 399.326 471.92 399.979 471.92C400.102 471.92 400.256 471.923 400.441 471.928C400.625 471.932 400.765 471.939 400.86 471.949V473.653C400.803 473.639 400.673 473.618 400.469 473.589C400.27 473.556 400.06 473.54 399.837 473.54C399.307 473.54 398.833 473.651 398.417 473.874C398.005 474.091 397.678 474.394 397.436 474.783C397.2 475.166 397.081 475.604 397.081 476.097V483H395.405Z" fill="white"/>
<path d="M31.7614 392V377.455H36.6761C37.8125 377.455 38.7453 377.649 39.4744 378.037C40.2036 378.42 40.7434 378.948 41.0938 379.621C41.4441 380.293 41.6193 381.058 41.6193 381.915C41.6193 382.772 41.4441 383.532 41.0938 384.195C40.7434 384.857 40.206 385.378 39.4815 385.757C38.7571 386.131 37.8314 386.318 36.7045 386.318H32.7273V384.727H36.6477C37.4242 384.727 38.0492 384.614 38.5227 384.386C39.0009 384.159 39.3466 383.837 39.5597 383.42C39.7775 382.999 39.8864 382.497 39.8864 381.915C39.8864 381.332 39.7775 380.823 39.5597 380.388C39.3419 379.952 38.9938 379.616 38.5156 379.379C38.0374 379.138 37.4053 379.017 36.6193 379.017H33.5227V392H31.7614ZM38.608 385.466L42.1875 392H40.142L36.6193 385.466H38.608ZM48.7837 392.227C47.7326 392.227 46.8259 391.995 46.0636 391.531C45.306 391.062 44.7212 390.409 44.3093 389.571C43.9021 388.728 43.6985 387.748 43.6985 386.631C43.6985 385.513 43.9021 384.528 44.3093 383.676C44.7212 382.819 45.2942 382.152 46.0281 381.673C46.7667 381.19 47.6284 380.949 48.6133 380.949C49.1815 380.949 49.7425 381.044 50.2965 381.233C50.8505 381.422 51.3548 381.73 51.8093 382.156C52.2638 382.578 52.6261 383.136 52.896 383.832C53.1658 384.528 53.3008 385.385 53.3008 386.403V387.114H44.8917V385.665H51.5962C51.5962 385.049 51.4731 384.5 51.2269 384.017C50.9854 383.534 50.6398 383.153 50.19 382.874C49.7449 382.594 49.2193 382.455 48.6133 382.455C47.9457 382.455 47.368 382.62 46.8803 382.952C46.3974 383.278 46.0257 383.705 45.7653 384.23C45.5049 384.756 45.3746 385.319 45.3746 385.92V386.886C45.3746 387.71 45.5167 388.409 45.8008 388.982C46.0896 389.55 46.4897 389.983 47.0011 390.281C47.5124 390.575 48.1067 390.722 48.7837 390.722C49.2241 390.722 49.6218 390.66 49.9769 390.537C50.3368 390.409 50.6469 390.22 50.9073 389.969C51.1677 389.713 51.369 389.396 51.511 389.017L53.1303 389.472C52.9599 390.021 52.6734 390.504 52.271 390.92C51.8685 391.332 51.3713 391.654 50.7795 391.886C50.1876 392.114 49.5224 392.227 48.7837 392.227ZM64.4389 381.091L60.4048 392H58.7003L54.6662 381.091H56.4844L59.4957 389.784H59.6094L62.6207 381.091H64.4389ZM70.8345 392.227C69.7834 392.227 68.8767 391.995 68.1143 391.531C67.3568 391.062 66.772 390.409 66.3601 389.571C65.9529 388.728 65.7493 387.748 65.7493 386.631C65.7493 385.513 65.9529 384.528 66.3601 383.676C66.772 382.819 67.3449 382.152 68.0788 381.673C68.8175 381.19 69.6792 380.949 70.6641 380.949C71.2322 380.949 71.7933 381.044 72.3473 381.233C72.9013 381.422 73.4055 381.73 73.8601 382.156C74.3146 382.578 74.6768 383.136 74.9467 383.832C75.2166 384.528 75.3516 385.385 75.3516 386.403V387.114H66.9425V385.665H73.647C73.647 385.049 73.5239 384.5 73.2777 384.017C73.0362 383.534 72.6906 383.153 72.2408 382.874C71.7957 382.594 71.2701 382.455 70.6641 382.455C69.9964 382.455 69.4188 382.62 68.9311 382.952C68.4482 383.278 68.0765 383.705 67.8161 384.23C67.5556 384.756 67.4254 385.319 67.4254 385.92V386.886C67.4254 387.71 67.5675 388.409 67.8516 388.982C68.1404 389.55 68.5405 389.983 69.0518 390.281C69.5632 390.575 70.1574 390.722 70.8345 390.722C71.2749 390.722 71.6726 390.66 72.0277 390.537C72.3875 390.409 72.6977 390.22 72.9581 389.969C73.2185 389.713 73.4197 389.396 73.5618 389.017L75.1811 389.472C75.0107 390.021 74.7242 390.504 74.3217 390.92C73.9193 391.332 73.4221 391.654 72.8303 391.886C72.2384 392.114 71.5732 392.227 70.8345 392.227ZM77.9013 392V381.091H79.5206V382.739H79.6342C79.8331 382.199 80.1929 381.761 80.7138 381.425C81.2346 381.089 81.8217 380.92 82.4751 380.92C82.5982 380.92 82.7521 380.923 82.9368 380.928C83.1214 380.932 83.2611 380.939 83.3558 380.949V382.653C83.299 382.639 83.1688 382.618 82.9652 382.589C82.7663 382.556 82.5556 382.54 82.3331 382.54C81.8028 382.54 81.3293 382.651 80.9126 382.874C80.5007 383.091 80.174 383.394 79.9325 383.783C79.6958 384.166 79.5774 384.604 79.5774 385.097V392H77.9013ZM85.57 392V377.455H87.2461V382.824H87.3881C87.5112 382.634 87.6817 382.393 87.8995 382.099C88.122 381.801 88.4393 381.536 88.8512 381.304C89.2679 381.067 89.8313 380.949 90.5415 380.949C91.4601 380.949 92.2698 381.179 92.9705 381.638C93.6713 382.097 94.2182 382.748 94.6112 383.591C95.0041 384.434 95.2006 385.428 95.2006 386.574C95.2006 387.729 95.0041 388.731 94.6112 389.578C94.2182 390.421 93.6737 391.074 92.9776 391.538C92.2816 391.998 91.479 392.227 90.57 392.227C89.8692 392.227 89.3081 392.111 88.8867 391.879C88.4653 391.643 88.141 391.375 87.9137 391.077C87.6864 390.774 87.5112 390.523 87.3881 390.324H87.1893V392H85.57ZM87.2177 386.545C87.2177 387.369 87.3384 388.096 87.5799 388.726C87.8214 389.351 88.1741 389.841 88.6381 390.196C89.1022 390.546 89.6703 390.722 90.3427 390.722C91.0434 390.722 91.6282 390.537 92.0969 390.168C92.5704 389.794 92.9255 389.292 93.1623 388.662C93.4038 388.027 93.5245 387.322 93.5245 386.545C93.5245 385.778 93.4061 385.087 93.1694 384.472C92.9374 383.851 92.5846 383.361 92.1112 383.001C91.6424 382.637 91.0529 382.455 90.3427 382.455C89.6609 382.455 89.0879 382.627 88.6239 382.973C88.1599 383.314 87.8095 383.792 87.5728 384.408C87.3361 385.018 87.2177 385.731 87.2177 386.545Z" fill="white"/>
<path d="M576.761 483V468.455H581.676C582.813 468.455 583.745 468.649 584.474 469.037C585.204 469.42 585.743 469.948 586.094 470.621C586.444 471.293 586.619 472.058 586.619 472.915C586.619 473.772 586.444 474.532 586.094 475.195C585.743 475.857 585.206 476.378 584.482 476.757C583.757 477.131 582.831 477.318 581.705 477.318H577.727V475.727H581.648C582.424 475.727 583.049 475.614 583.523 475.386C584.001 475.159 584.347 474.837 584.56 474.42C584.777 473.999 584.886 473.497 584.886 472.915C584.886 472.332 584.777 471.823 584.56 471.388C584.342 470.952 583.994 470.616 583.516 470.379C583.037 470.138 582.405 470.017 581.619 470.017H578.523V483H576.761ZM583.608 476.466L587.188 483H585.142L581.619 476.466H583.608ZM593.784 483.227C592.733 483.227 591.826 482.995 591.064 482.531C590.306 482.062 589.721 481.409 589.309 480.571C588.902 479.728 588.699 478.748 588.699 477.631C588.699 476.513 588.902 475.528 589.309 474.676C589.721 473.819 590.294 473.152 591.028 472.673C591.767 472.19 592.628 471.949 593.613 471.949C594.181 471.949 594.743 472.044 595.297 472.233C595.85 472.422 596.355 472.73 596.809 473.156C597.264 473.578 597.626 474.136 597.896 474.832C598.166 475.528 598.301 476.385 598.301 477.403V478.114H589.892V476.665H596.596C596.596 476.049 596.473 475.5 596.227 475.017C595.985 474.534 595.64 474.153 595.19 473.874C594.745 473.594 594.219 473.455 593.613 473.455C592.946 473.455 592.368 473.62 591.88 473.952C591.397 474.278 591.026 474.705 590.765 475.23C590.505 475.756 590.375 476.319 590.375 476.92V477.886C590.375 478.71 590.517 479.409 590.801 479.982C591.09 480.55 591.49 480.983 592.001 481.281C592.512 481.575 593.107 481.722 593.784 481.722C594.224 481.722 594.622 481.66 594.977 481.537C595.337 481.409 595.647 481.22 595.907 480.969C596.168 480.713 596.369 480.396 596.511 480.017L598.13 480.472C597.96 481.021 597.673 481.504 597.271 481.92C596.868 482.332 596.371 482.654 595.779 482.886C595.188 483.114 594.522 483.227 593.784 483.227ZM609.439 472.091L605.405 483H603.7L599.666 472.091H601.484L604.496 480.784H604.609L607.621 472.091H609.439ZM615.835 483.227C614.783 483.227 613.877 482.995 613.114 482.531C612.357 482.062 611.772 481.409 611.36 480.571C610.953 479.728 610.749 478.748 610.749 477.631C610.749 476.513 610.953 475.528 611.36 474.676C611.772 473.819 612.345 473.152 613.079 472.673C613.817 472.19 614.679 471.949 615.664 471.949C616.232 471.949 616.793 472.044 617.347 472.233C617.901 472.422 618.406 472.73 618.86 473.156C619.315 473.578 619.677 474.136 619.947 474.832C620.217 475.528 620.352 476.385 620.352 477.403V478.114H611.942V476.665H618.647C618.647 476.049 618.524 475.5 618.278 475.017C618.036 474.534 617.691 474.153 617.241 473.874C616.796 473.594 616.27 473.455 615.664 473.455C614.996 473.455 614.419 473.62 613.931 473.952C613.448 474.278 613.076 474.705 612.816 475.23C612.556 475.756 612.425 476.319 612.425 476.92V477.886C612.425 478.71 612.567 479.409 612.852 479.982C613.14 480.55 613.54 480.983 614.052 481.281C614.563 481.575 615.157 481.722 615.835 481.722C616.275 481.722 616.673 481.66 617.028 481.537C617.388 481.409 617.698 481.22 617.958 480.969C618.219 480.713 618.42 480.396 618.562 480.017L620.181 480.472C620.011 481.021 619.724 481.504 619.322 481.92C618.919 482.332 618.422 482.654 617.83 482.886C617.238 483.114 616.573 483.227 615.835 483.227ZM622.901 483V472.091H624.521V473.739H624.634C624.833 473.199 625.193 472.761 625.714 472.425C626.235 472.089 626.822 471.92 627.475 471.92C627.598 471.92 627.752 471.923 627.937 471.928C628.121 471.932 628.261 471.939 628.356 471.949V473.653C628.299 473.639 628.169 473.618 627.965 473.589C627.766 473.556 627.556 473.54 627.333 473.54C626.803 473.54 626.329 473.651 625.913 473.874C625.501 474.091 625.174 474.394 624.933 474.783C624.696 475.166 624.577 475.604 624.577 476.097V483H622.901ZM630.57 483V468.455H632.246V473.824H632.388C632.511 473.634 632.682 473.393 632.9 473.099C633.122 472.801 633.439 472.536 633.851 472.304C634.268 472.067 634.831 471.949 635.542 471.949C636.46 471.949 637.27 472.179 637.971 472.638C638.671 473.097 639.218 473.748 639.611 474.591C640.004 475.434 640.201 476.428 640.201 477.574C640.201 478.729 640.004 479.731 639.611 480.578C639.218 481.421 638.674 482.074 637.978 482.538C637.282 482.998 636.479 483.227 635.57 483.227C634.869 483.227 634.308 483.111 633.887 482.879C633.465 482.643 633.141 482.375 632.914 482.077C632.686 481.774 632.511 481.523 632.388 481.324H632.189V483H630.57ZM632.218 477.545C632.218 478.369 632.338 479.096 632.58 479.726C632.821 480.351 633.174 480.841 633.638 481.196C634.102 481.546 634.67 481.722 635.343 481.722C636.043 481.722 636.628 481.537 637.097 481.168C637.57 480.794 637.926 480.292 638.162 479.662C638.404 479.027 638.525 478.322 638.525 477.545C638.525 476.778 638.406 476.087 638.169 475.472C637.937 474.851 637.585 474.361 637.111 474.001C636.642 473.637 636.053 473.455 635.343 473.455C634.661 473.455 634.088 473.627 633.624 473.973C633.16 474.314 632.81 474.792 632.573 475.408C632.336 476.018 632.218 476.731 632.218 477.545Z" fill="white"/>
<path d="M822.705 473C822.548 472.522 822.342 472.093 822.087 471.714C821.836 471.331 821.535 471.004 821.185 470.734C820.839 470.464 820.446 470.259 820.006 470.116C819.565 469.974 819.082 469.903 818.557 469.903C817.695 469.903 816.911 470.126 816.206 470.571C815.5 471.016 814.939 471.672 814.523 472.538C814.106 473.405 813.898 474.468 813.898 475.727C813.898 476.987 814.108 478.05 814.53 478.916C814.951 479.783 815.522 480.438 816.241 480.884C816.961 481.329 817.771 481.551 818.67 481.551C819.504 481.551 820.238 481.374 820.872 481.018C821.511 480.659 822.009 480.152 822.364 479.499C822.723 478.84 822.903 478.066 822.903 477.176L823.443 477.29H819.068V475.727H824.608V477.29C824.608 478.488 824.352 479.529 823.841 480.415C823.334 481.3 822.634 481.987 821.739 482.474C820.848 482.957 819.826 483.199 818.67 483.199C817.383 483.199 816.251 482.896 815.276 482.29C814.305 481.684 813.547 480.822 813.003 479.705C812.463 478.587 812.193 477.261 812.193 475.727C812.193 474.577 812.347 473.542 812.655 472.624C812.967 471.7 813.408 470.914 813.976 470.266C814.544 469.617 815.216 469.12 815.993 468.774C816.769 468.429 817.624 468.256 818.557 468.256C819.324 468.256 820.039 468.372 820.702 468.604C821.369 468.831 821.964 469.155 822.484 469.577C823.01 469.993 823.448 470.493 823.798 471.075C824.149 471.653 824.39 472.295 824.523 473H822.705ZM831.971 483.227C830.92 483.227 830.013 482.995 829.251 482.531C828.493 482.062 827.909 481.409 827.497 480.571C827.09 479.728 826.886 478.748 826.886 477.631C826.886 476.513 827.09 475.528 827.497 474.676C827.909 473.819 828.482 473.152 829.216 472.673C829.954 472.19 830.816 471.949 831.801 471.949C832.369 471.949 832.93 472.044 833.484 472.233C834.038 472.422 834.542 472.73 834.997 473.156C835.451 473.578 835.814 474.136 836.083 474.832C836.353 475.528 836.488 476.385 836.488 477.403V478.114H828.079V476.665H834.784C834.784 476.049 834.661 475.5 834.414 475.017C834.173 474.534 833.827 474.153 833.377 473.874C832.932 473.594 832.407 473.455 831.801 473.455C831.133 473.455 830.556 473.62 830.068 473.952C829.585 474.278 829.213 474.705 828.953 475.23C828.692 475.756 828.562 476.319 828.562 476.92V477.886C828.562 478.71 828.704 479.409 828.988 479.982C829.277 480.55 829.677 480.983 830.189 481.281C830.7 481.575 831.294 481.722 831.971 481.722C832.412 481.722 832.809 481.66 833.164 481.537C833.524 481.409 833.834 481.22 834.095 480.969C834.355 480.713 834.556 480.396 834.699 480.017L836.318 480.472C836.147 481.021 835.861 481.504 835.458 481.92C835.056 482.332 834.559 482.654 833.967 482.886C833.375 483.114 832.71 483.227 831.971 483.227ZM840.714 476.438V483H839.038V472.091H840.657V473.795H840.799C841.055 473.241 841.443 472.796 841.964 472.46C842.485 472.119 843.157 471.949 843.981 471.949C844.72 471.949 845.366 472.1 845.92 472.403C846.474 472.702 846.905 473.156 847.213 473.767C847.52 474.373 847.674 475.14 847.674 476.068V483H845.998V476.182C845.998 475.325 845.776 474.657 845.331 474.179C844.886 473.696 844.275 473.455 843.498 473.455C842.963 473.455 842.485 473.571 842.064 473.803C841.647 474.035 841.318 474.373 841.076 474.818C840.835 475.263 840.714 475.803 840.714 476.438ZM855.311 483.227C854.26 483.227 853.353 482.995 852.591 482.531C851.833 482.062 851.249 481.409 850.837 480.571C850.429 479.728 850.226 478.748 850.226 477.631C850.226 476.513 850.429 475.528 850.837 474.676C851.249 473.819 851.821 473.152 852.555 472.673C853.294 472.19 854.156 471.949 855.141 471.949C855.709 471.949 856.27 472.044 856.824 472.233C857.378 472.422 857.882 472.73 858.337 473.156C858.791 473.578 859.153 474.136 859.423 474.832C859.693 475.528 859.828 476.385 859.828 477.403V478.114H851.419V476.665H858.124C858.124 476.049 858 475.5 857.754 475.017C857.513 474.534 857.167 474.153 856.717 473.874C856.272 473.594 855.747 473.455 855.141 473.455C854.473 473.455 853.895 473.62 853.408 473.952C852.925 474.278 852.553 474.705 852.293 475.23C852.032 475.756 851.902 476.319 851.902 476.92V477.886C851.902 478.71 852.044 479.409 852.328 479.982C852.617 480.55 853.017 480.983 853.528 481.281C854.04 481.575 854.634 481.722 855.311 481.722C855.751 481.722 856.149 481.66 856.504 481.537C856.864 481.409 857.174 481.22 857.435 480.969C857.695 480.713 857.896 480.396 858.038 480.017L859.658 480.472C859.487 481.021 859.201 481.504 858.798 481.92C858.396 482.332 857.899 482.654 857.307 482.886C856.715 483.114 856.05 483.227 855.311 483.227ZM862.378 483V472.091H863.997V473.739H864.111C864.31 473.199 864.67 472.761 865.19 472.425C865.711 472.089 866.298 471.92 866.952 471.92C867.075 471.92 867.229 471.923 867.413 471.928C867.598 471.932 867.738 471.939 867.832 471.949V473.653C867.776 473.639 867.645 473.618 867.442 473.589C867.243 473.556 867.032 473.54 866.81 473.54C866.279 473.54 865.806 473.651 865.389 473.874C864.977 474.091 864.651 474.394 864.409 474.783C864.172 475.166 864.054 475.604 864.054 476.097V483H862.378ZM873.029 483.256C872.338 483.256 871.711 483.125 871.147 482.865C870.584 482.6 870.136 482.219 869.805 481.722C869.474 481.22 869.308 480.614 869.308 479.903C869.308 479.278 869.431 478.772 869.677 478.384C869.923 477.991 870.252 477.683 870.664 477.46C871.076 477.238 871.531 477.072 872.028 476.963C872.53 476.849 873.034 476.759 873.541 476.693C874.204 476.608 874.741 476.544 875.153 476.501C875.57 476.454 875.873 476.376 876.062 476.267C876.256 476.158 876.353 475.969 876.353 475.699V475.642C876.353 474.941 876.162 474.397 875.778 474.009C875.399 473.62 874.824 473.426 874.052 473.426C873.252 473.426 872.625 473.601 872.17 473.952C871.716 474.302 871.396 474.676 871.211 475.074L869.62 474.506C869.904 473.843 870.283 473.327 870.757 472.957C871.235 472.583 871.756 472.323 872.319 472.176C872.887 472.025 873.446 471.949 873.995 471.949C874.346 471.949 874.748 471.991 875.203 472.077C875.662 472.157 876.105 472.325 876.531 472.581C876.962 472.837 877.319 473.223 877.603 473.739C877.887 474.255 878.029 474.946 878.029 475.812V483H876.353V481.523H876.268C876.154 481.759 875.965 482.013 875.7 482.283C875.435 482.553 875.082 482.782 874.642 482.972C874.201 483.161 873.664 483.256 873.029 483.256ZM873.285 481.75C873.948 481.75 874.507 481.62 874.961 481.359C875.421 481.099 875.766 480.763 875.998 480.351C876.235 479.939 876.353 479.506 876.353 479.051V477.517C876.282 477.602 876.126 477.68 875.885 477.751C875.648 477.818 875.373 477.877 875.061 477.929C874.753 477.976 874.452 478.019 874.159 478.057C873.87 478.09 873.636 478.118 873.456 478.142C873.02 478.199 872.613 478.291 872.234 478.419C871.86 478.542 871.557 478.729 871.325 478.98C871.098 479.226 870.984 479.562 870.984 479.989C870.984 480.571 871.199 481.011 871.63 481.31C872.066 481.603 872.618 481.75 873.285 481.75ZM882.765 468.455V483H881.089V468.455H882.765Z" fill="white"/>
<line x1="15" y1="136.5" x2="962.001" y2="136.5" stroke="#2E4529" stroke-width="3"/>
<line x1="15" y1="275.5" x2="962.001" y2="275.5" stroke="#2E4529" stroke-width="3"/>
<line x1="15" y1="346.5" x2="962.001" y2="346.5" stroke="#2E4529" stroke-width="3"/>
<line x1="15" y1="206.5" x2="962.001" y2="206.5" stroke="#2E4529" stroke-width="3"/>
<path d="M952.573 75.7273V83H951.692V76.6506H951.65L949.874 77.8295V76.9347L951.692 75.7273H952.573ZM957.037 83.0994C956.502 83.0994 956.046 82.9538 955.67 82.6626C955.293 82.3691 955.006 81.9441 954.807 81.3878C954.608 80.8291 954.508 80.1544 954.508 79.3636C954.508 78.5777 954.608 77.9065 954.807 77.3501C955.008 76.7914 955.297 76.3653 955.673 76.0717C956.052 75.7758 956.507 75.6278 957.037 75.6278C957.567 75.6278 958.021 75.7758 958.397 76.0717C958.776 76.3653 959.065 76.7914 959.263 77.3501C959.465 77.9065 959.565 78.5777 959.565 79.3636C959.565 80.1544 959.466 80.8291 959.267 81.3878C959.068 81.9441 958.78 82.3691 958.404 82.6626C958.028 82.9538 957.572 83.0994 957.037 83.0994ZM957.037 82.3182C957.567 82.3182 957.979 82.0625 958.273 81.5511C958.566 81.0398 958.713 80.3106 958.713 79.3636C958.713 78.7339 958.646 78.1977 958.511 77.755C958.378 77.3123 958.186 76.9749 957.935 76.7429C957.687 76.5109 957.387 76.3949 957.037 76.3949C956.511 76.3949 956.101 76.6541 955.805 77.1726C955.509 77.6887 955.361 78.419 955.361 79.3636C955.361 79.9934 955.427 80.5284 955.56 80.9688C955.692 81.4091 955.883 81.7441 956.131 81.9737C956.382 82.2034 956.684 82.3182 957.037 82.3182Z" fill="#C2C7C2"/>
<path d="M954.511 130.099C953.976 130.099 953.52 129.954 953.144 129.663C952.768 129.369 952.48 128.944 952.281 128.388C952.082 127.829 951.983 127.154 951.983 126.364C951.983 125.578 952.082 124.906 952.281 124.35C952.482 123.791 952.771 123.365 953.148 123.072C953.526 122.776 953.981 122.628 954.511 122.628C955.041 122.628 955.495 122.776 955.871 123.072C956.25 123.365 956.539 123.791 956.738 124.35C956.939 124.906 957.04 125.578 957.04 126.364C957.04 127.154 956.94 127.829 956.741 128.388C956.542 128.944 956.255 129.369 955.878 129.663C955.502 129.954 955.046 130.099 954.511 130.099ZM954.511 129.318C955.041 129.318 955.453 129.062 955.747 128.551C956.041 128.04 956.187 127.311 956.187 126.364C956.187 125.734 956.12 125.198 955.985 124.755C955.852 124.312 955.661 123.975 955.41 123.743C955.161 123.511 954.862 123.395 954.511 123.395C953.986 123.395 953.575 123.654 953.279 124.173C952.983 124.689 952.835 125.419 952.835 126.364C952.835 126.993 952.901 127.528 953.034 127.969C953.166 128.409 953.357 128.744 953.606 128.974C953.857 129.203 954.158 129.318 954.511 129.318Z" fill="#C2C7C2"/>
<path d="M135.31 75.7273V83H134.429V76.6506H134.386L132.611 77.8295V76.9347L134.429 75.7273H135.31ZM139.773 83.0994C139.238 83.0994 138.783 82.9538 138.406 82.6626C138.03 82.3691 137.742 81.9441 137.543 81.3878C137.344 80.8291 137.245 80.1544 137.245 79.3636C137.245 78.5777 137.344 77.9065 137.543 77.3501C137.745 76.7914 138.033 76.3653 138.41 76.0717C138.789 75.7758 139.243 75.6278 139.773 75.6278C140.304 75.6278 140.757 75.7758 141.134 76.0717C141.512 76.3653 141.801 76.7914 142 77.3501C142.201 77.9065 142.302 78.5777 142.302 79.3636C142.302 80.1544 142.202 80.8291 142.004 81.3878C141.805 81.9441 141.517 82.3691 141.141 82.6626C140.764 82.9538 140.308 83.0994 139.773 83.0994ZM139.773 82.3182C140.304 82.3182 140.716 82.0625 141.009 81.5511C141.303 81.0398 141.45 80.3106 141.45 79.3636C141.45 78.7339 141.382 78.1977 141.247 77.755C141.115 77.3123 140.923 76.9749 140.672 76.7429C140.423 76.5109 140.124 76.3949 139.773 76.3949C139.248 76.3949 138.837 76.6541 138.541 77.1726C138.245 77.6887 138.097 78.419 138.097 79.3636C138.097 79.9934 138.164 80.5284 138.296 80.9688C138.429 81.4091 138.619 81.7441 138.868 81.9737C139.119 82.2034 139.421 82.3182 139.773 82.3182Z" fill="#C2C7C2"/>
<path d="M140.432 130.099C139.897 130.099 139.441 129.954 139.065 129.663C138.688 129.369 138.401 128.944 138.202 128.388C138.003 127.829 137.903 127.154 137.903 126.364C137.903 125.578 138.003 124.906 138.202 124.35C138.403 123.791 138.692 123.365 139.068 123.072C139.447 122.776 139.902 122.628 140.432 122.628C140.962 122.628 141.416 122.776 141.792 123.072C142.171 123.365 142.46 123.791 142.658 124.35C142.86 124.906 142.96 125.578 142.96 126.364C142.96 127.154 142.861 127.829 142.662 128.388C142.463 128.944 142.176 129.369 141.799 129.663C141.423 129.954 140.967 130.099 140.432 130.099ZM140.432 129.318C140.962 129.318 141.374 129.062 141.668 128.551C141.961 128.04 142.108 127.311 142.108 126.364C142.108 125.734 142.041 125.198 141.906 124.755C141.773 124.312 141.581 123.975 141.33 123.743C141.082 123.511 140.782 123.395 140.432 123.395C139.906 123.395 139.496 123.654 139.2 124.173C138.904 124.689 138.756 125.419 138.756 126.364C138.756 126.993 138.822 127.528 138.955 127.969C139.087 128.409 139.278 128.744 139.526 128.974C139.777 129.203 140.079 129.318 140.432 129.318Z" fill="#C2C7C2"/>
<path d="M952.573 145.727V153H951.692V146.651H951.65L949.874 147.83V146.935L951.692 145.727H952.573ZM957.037 153.099C956.502 153.099 956.046 152.954 955.67 152.663C955.293 152.369 955.006 151.944 954.807 151.388C954.608 150.829 954.508 150.154 954.508 149.364C954.508 148.578 954.608 147.906 954.807 147.35C955.008 146.791 955.297 146.365 955.673 146.072C956.052 145.776 956.507 145.628 957.037 145.628C957.567 145.628 958.021 145.776 958.397 146.072C958.776 146.365 959.065 146.791 959.263 147.35C959.465 147.906 959.565 148.578 959.565 149.364C959.565 150.154 959.466 150.829 959.267 151.388C959.068 151.944 958.78 152.369 958.404 152.663C958.028 152.954 957.572 153.099 957.037 153.099ZM957.037 152.318C957.567 152.318 957.979 152.062 958.273 151.551C958.566 151.04 958.713 150.311 958.713 149.364C958.713 148.734 958.646 148.198 958.511 147.755C958.378 147.312 958.186 146.975 957.935 146.743C957.687 146.511 957.387 146.395 957.037 146.395C956.511 146.395 956.101 146.654 955.805 147.173C955.509 147.689 955.361 148.419 955.361 149.364C955.361 149.993 955.427 150.528 955.56 150.969C955.692 151.409 955.883 151.744 956.131 151.974C956.382 152.203 956.684 152.318 957.037 152.318Z" fill="#C2C7C2"/>
<path d="M954.511 200.099C953.976 200.099 953.52 199.954 953.144 199.663C952.768 199.369 952.48 198.944 952.281 198.388C952.082 197.829 951.983 197.154 951.983 196.364C951.983 195.578 952.082 194.906 952.281 194.35C952.482 193.791 952.771 193.365 953.148 193.072C953.526 192.776 953.981 192.628 954.511 192.628C955.041 192.628 955.495 192.776 955.871 193.072C956.25 193.365 956.539 193.791 956.738 194.35C956.939 194.906 957.04 195.578 957.04 196.364C957.04 197.154 956.94 197.829 956.741 198.388C956.542 198.944 956.255 199.369 955.878 199.663C955.502 199.954 955.046 200.099 954.511 200.099ZM954.511 199.318C955.041 199.318 955.453 199.062 955.747 198.551C956.041 198.04 956.187 197.311 956.187 196.364C956.187 195.734 956.12 195.198 955.985 194.755C955.852 194.312 955.661 193.975 955.41 193.743C955.161 193.511 954.862 193.395 954.511 193.395C953.986 193.395 953.575 193.654 953.279 194.173C952.983 194.689 952.835 195.419 952.835 196.364C952.835 196.993 952.901 197.528 953.034 197.969C953.166 198.409 953.357 198.744 953.606 198.974C953.857 199.203 954.158 199.318 954.511 199.318Z" fill="#C2C7C2"/>
<path d="M135.31 145.727V153H134.429V146.651H134.386L132.611 147.83V146.935L134.429 145.727H135.31ZM139.773 153.099C139.238 153.099 138.783 152.954 138.406 152.663C138.03 152.369 137.742 151.944 137.543 151.388C137.344 150.829 137.245 150.154 137.245 149.364C137.245 148.578 137.344 147.906 137.543 147.35C137.745 146.791 138.033 146.365 138.41 146.072C138.789 145.776 139.243 145.628 139.773 145.628C140.304 145.628 140.757 145.776 141.134 146.072C141.512 146.365 141.801 146.791 142 147.35C142.201 147.906 142.302 148.578 142.302 149.364C142.302 150.154 142.202 150.829 142.004 151.388C141.805 151.944 141.517 152.369 141.141 152.663C140.764 152.954 140.308 153.099 139.773 153.099ZM139.773 152.318C140.304 152.318 140.716 152.062 141.009 151.551C141.303 151.04 141.45 150.311 141.45 149.364C141.45 148.734 141.382 148.198 141.247 147.755C141.115 147.312 140.923 146.975 140.672 146.743C140.423 146.511 140.124 146.395 139.773 146.395C139.248 146.395 138.837 146.654 138.541 147.173C138.245 147.689 138.097 148.419 138.097 149.364C138.097 149.993 138.164 150.528 138.296 150.969C138.429 151.409 138.619 151.744 138.868 151.974C139.119 152.203 139.421 152.318 139.773 152.318Z" fill="#C2C7C2"/>
<path d="M140.432 200.099C139.897 200.099 139.441 199.954 139.065 199.663C138.688 199.369 138.401 198.944 138.202 198.388C138.003 197.829 137.903 197.154 137.903 196.364C137.903 195.578 138.003 194.906 138.202 194.35C138.403 193.791 138.692 193.365 139.068 193.072C139.447 192.776 139.902 192.628 140.432 192.628C140.962 192.628 141.416 192.776 141.792 193.072C142.171 193.365 142.46 193.791 142.658 194.35C142.86 194.906 142.96 195.578 142.96 196.364C142.96 197.154 142.861 197.829 142.662 198.388C142.463 198.944 142.176 199.369 141.799 199.663C141.423 199.954 140.967 200.099 140.432 200.099ZM140.432 199.318C140.962 199.318 141.374 199.062 141.668 198.551C141.961 198.04 142.108 197.311 142.108 196.364C142.108 195.734 142.041 195.198 141.906 194.755C141.773 194.312 141.581 193.975 141.33 193.743C141.082 193.511 140.782 193.395 140.432 193.395C139.906 193.395 139.496 193.654 139.2 194.173C138.904 194.689 138.756 195.419 138.756 196.364C138.756 196.993 138.822 197.528 138.955 197.969C139.087 198.409 139.278 198.744 139.526 198.974C139.777 199.203 140.079 199.318 140.432 199.318Z" fill="#C2C7C2"/>
<path d="M952.573 215.727V223H951.692V216.651H951.65L949.874 217.83V216.935L951.692 215.727H952.573ZM957.037 223.099C956.502 223.099 956.046 222.954 955.67 222.663C955.293 222.369 955.006 221.944 954.807 221.388C954.608 220.829 954.508 220.154 954.508 219.364C954.508 218.578 954.608 217.906 954.807 217.35C955.008 216.791 955.297 216.365 955.673 216.072C956.052 215.776 956.507 215.628 957.037 215.628C957.567 215.628 958.021 215.776 958.397 216.072C958.776 216.365 959.065 216.791 959.263 217.35C959.465 217.906 959.565 218.578 959.565 219.364C959.565 220.154 959.466 220.829 959.267 221.388C959.068 221.944 958.78 222.369 958.404 222.663C958.028 222.954 957.572 223.099 957.037 223.099ZM957.037 222.318C957.567 222.318 957.979 222.062 958.273 221.551C958.566 221.04 958.713 220.311 958.713 219.364C958.713 218.734 958.646 218.198 958.511 217.755C958.378 217.312 958.186 216.975 957.935 216.743C957.687 216.511 957.387 216.395 957.037 216.395C956.511 216.395 956.101 216.654 955.805 217.173C955.509 217.689 955.361 218.419 955.361 219.364C955.361 219.993 955.427 220.528 955.56 220.969C955.692 221.409 955.883 221.744 956.131 221.974C956.382 222.203 956.684 222.318 957.037 222.318Z" fill="#C2C7C2"/>
<path d="M954.511 270.099C953.976 270.099 953.52 269.954 953.144 269.663C952.768 269.369 952.48 268.944 952.281 268.388C952.082 267.829 951.983 267.154 951.983 266.364C951.983 265.578 952.082 264.906 952.281 264.35C952.482 263.791 952.771 263.365 953.148 263.072C953.526 262.776 953.981 262.628 954.511 262.628C955.041 262.628 955.495 262.776 955.871 263.072C956.25 263.365 956.539 263.791 956.738 264.35C956.939 264.906 957.04 265.578 957.04 266.364C957.04 267.154 956.94 267.829 956.741 268.388C956.542 268.944 956.255 269.369 955.878 269.663C955.502 269.954 955.046 270.099 954.511 270.099ZM954.511 269.318C955.041 269.318 955.453 269.062 955.747 268.551C956.041 268.04 956.187 267.311 956.187 266.364C956.187 265.734 956.12 265.198 955.985 264.755C955.852 264.312 955.661 263.975 955.41 263.743C955.161 263.511 954.862 263.395 954.511 263.395C953.986 263.395 953.575 263.654 953.279 264.173C952.983 264.689 952.835 265.419 952.835 266.364C952.835 266.993 952.901 267.528 953.034 267.969C953.166 268.409 953.357 268.744 953.606 268.974C953.857 269.203 954.158 269.318 954.511 269.318Z" fill="#C2C7C2"/>
<path d="M135.31 215.727V223H134.429V216.651H134.386L132.611 217.83V216.935L134.429 215.727H135.31ZM139.773 223.099C139.238 223.099 138.783 222.954 138.406 222.663C138.03 222.369 137.742 221.944 137.543 221.388C137.344 220.829 137.245 220.154 137.245 219.364C137.245 218.578 137.344 217.906 137.543 217.35C137.745 216.791 138.033 216.365 138.41 216.072C138.789 215.776 139.243 215.628 139.773 215.628C140.304 215.628 140.757 215.776 141.134 216.072C141.512 216.365 141.801 216.791 142 217.35C142.201 217.906 142.302 218.578 142.302 219.364C142.302 220.154 142.202 220.829 142.004 221.388C141.805 221.944 141.517 222.369 141.141 222.663C140.764 222.954 140.308 223.099 139.773 223.099ZM139.773 222.318C140.304 222.318 140.716 222.062 141.009 221.551C141.303 221.04 141.45 220.311 141.45 219.364C141.45 218.734 141.382 218.198 141.247 217.755C141.115 217.312 140.923 216.975 140.672 216.743C140.423 216.511 140.124 216.395 139.773 216.395C139.248 216.395 138.837 216.654 138.541 217.173C138.245 217.689 138.097 218.419 138.097 219.364C138.097 219.993 138.164 220.528 138.296 220.969C138.429 221.409 138.619 221.744 138.868 221.974C139.119 222.203 139.421 222.318 139.773 222.318Z" fill="#C2C7C2"/>
<path d="M140.432 270.099C139.897 270.099 139.441 269.954 139.065 269.663C138.688 269.369 138.401 268.944 138.202 268.388C138.003 267.829 137.903 267.154 137.903 266.364C137.903 265.578 138.003 264.906 138.202 264.35C138.403 263.791 138.692 263.365 139.068 263.072C139.447 262.776 139.902 262.628 140.432 262.628C140.962 262.628 141.416 262.776 141.792 263.072C142.171 263.365 142.46 263.791 142.658 264.35C142.86 264.906 142.96 265.578 142.96 266.364C142.96 267.154 142.861 267.829 142.662 268.388C142.463 268.944 142.176 269.369 141.799 269.663C141.423 269.954 140.967 270.099 140.432 270.099ZM140.432 269.318C140.962 269.318 141.374 269.062 141.668 268.551C141.961 268.04 142.108 267.311 142.108 266.364C142.108 265.734 142.041 265.198 141.906 264.755C141.773 264.312 141.581 263.975 141.33 263.743C141.082 263.511 140.782 263.395 140.432 263.395C139.906 263.395 139.496 263.654 139.2 264.173C138.904 264.689 138.756 265.419 138.756 266.364C138.756 266.993 138.822 267.528 138.955 267.969C139.087 268.409 139.278 268.744 139.526 268.974C139.777 269.203 140.079 269.318 140.432 269.318Z" fill="#C2C7C2"/>
<path d="M952.573 285.727V293H951.692V286.651H951.65L949.874 287.83V286.935L951.692 285.727H952.573ZM957.037 293.099C956.502 293.099 956.046 292.954 955.67 292.663C955.293 292.369 955.006 291.944 954.807 291.388C954.608 290.829 954.508 290.154 954.508 289.364C954.508 288.578 954.608 287.906 954.807 287.35C955.008 286.791 955.297 286.365 955.673 286.072C956.052 285.776 956.507 285.628 957.037 285.628C957.567 285.628 958.021 285.776 958.397 286.072C958.776 286.365 959.065 286.791 959.263 287.35C959.465 287.906 959.565 288.578 959.565 289.364C959.565 290.154 959.466 290.829 959.267 291.388C959.068 291.944 958.78 292.369 958.404 292.663C958.028 292.954 957.572 293.099 957.037 293.099ZM957.037 292.318C957.567 292.318 957.979 292.062 958.273 291.551C958.566 291.04 958.713 290.311 958.713 289.364C958.713 288.734 958.646 288.198 958.511 287.755C958.378 287.312 958.186 286.975 957.935 286.743C957.687 286.511 957.387 286.395 957.037 286.395C956.511 286.395 956.101 286.654 955.805 287.173C955.509 287.689 955.361 288.419 955.361 289.364C955.361 289.993 955.427 290.528 955.56 290.969C955.692 291.409 955.883 291.744 956.131 291.974C956.382 292.203 956.684 292.318 957.037 292.318Z" fill="#C2C7C2"/>
<path d="M954.511 340.099C953.976 340.099 953.52 339.954 953.144 339.663C952.768 339.369 952.48 338.944 952.281 338.388C952.082 337.829 951.983 337.154 951.983 336.364C951.983 335.578 952.082 334.906 952.281 334.35C952.482 333.791 952.771 333.365 953.148 333.072C953.526 332.776 953.981 332.628 954.511 332.628C955.041 332.628 955.495 332.776 955.871 333.072C956.25 333.365 956.539 333.791 956.738 334.35C956.939 334.906 957.04 335.578 957.04 336.364C957.04 337.154 956.94 337.829 956.741 338.388C956.542 338.944 956.255 339.369 955.878 339.663C955.502 339.954 955.046 340.099 954.511 340.099ZM954.511 339.318C955.041 339.318 955.453 339.062 955.747 338.551C956.041 338.04 956.187 337.311 956.187 336.364C956.187 335.734 956.12 335.198 955.985 334.755C955.852 334.312 955.661 333.975 955.41 333.743C955.161 333.511 954.862 333.395 954.511 333.395C953.986 333.395 953.575 333.654 953.279 334.173C952.983 334.689 952.835 335.419 952.835 336.364C952.835 336.993 952.901 337.528 953.034 337.969C953.166 338.409 953.357 338.744 953.606 338.974C953.857 339.203 954.158 339.318 954.511 339.318Z" fill="#C2C7C2"/>
<path d="M135.31 285.727V293H134.429V286.651H134.386L132.611 287.83V286.935L134.429 285.727H135.31ZM139.773 293.099C139.238 293.099 138.783 292.954 138.406 292.663C138.03 292.369 137.742 291.944 137.543 291.388C137.344 290.829 137.245 290.154 137.245 289.364C137.245 288.578 137.344 287.906 137.543 287.35C137.745 286.791 138.033 286.365 138.41 286.072C138.789 285.776 139.243 285.628 139.773 285.628C140.304 285.628 140.757 285.776 141.134 286.072C141.512 286.365 141.801 286.791 142 287.35C142.201 287.906 142.302 288.578 142.302 289.364C142.302 290.154 142.202 290.829 142.004 291.388C141.805 291.944 141.517 292.369 141.141 292.663C140.764 292.954 140.308 293.099 139.773 293.099ZM139.773 292.318C140.304 292.318 140.716 292.062 141.009 291.551C141.303 291.04 141.45 290.311 141.45 289.364C141.45 288.734 141.382 288.198 141.247 287.755C141.115 287.312 140.923 286.975 140.672 286.743C140.423 286.511 140.124 286.395 139.773 286.395C139.248 286.395 138.837 286.654 138.541 287.173C138.245 287.689 138.097 288.419 138.097 289.364C138.097 289.993 138.164 290.528 138.296 290.969C138.429 291.409 138.619 291.744 138.868 291.974C139.119 292.203 139.421 292.318 139.773 292.318Z" fill="#C2C7C2"/>
<path d="M140.432 340.099C139.897 340.099 139.441 339.954 139.065 339.663C138.688 339.369 138.401 338.944 138.202 338.388C138.003 337.829 137.903 337.154 137.903 336.364C137.903 335.578 138.003 334.906 138.202 334.35C138.403 333.791 138.692 333.365 139.068 333.072C139.447 332.776 139.902 332.628 140.432 332.628C140.962 332.628 141.416 332.776 141.792 333.072C142.171 333.365 142.46 333.791 142.658 334.35C142.86 334.906 142.96 335.578 142.96 336.364C142.96 337.154 142.861 337.829 142.662 338.388C142.463 338.944 142.176 339.369 141.799 339.663C141.423 339.954 140.967 340.099 140.432 340.099ZM140.432 339.318C140.962 339.318 141.374 339.062 141.668 338.551C141.961 338.04 142.108 337.311 142.108 336.364C142.108 335.734 142.041 335.198 141.906 334.755C141.773 334.312 141.581 333.975 141.33 333.743C141.082 333.511 140.782 333.395 140.432 333.395C139.906 333.395 139.496 333.654 139.2 334.173C138.904 334.689 138.756 335.419 138.756 336.364C138.756 336.993 138.822 337.528 138.955 337.969C139.087 338.409 139.278 338.744 139.526 338.974C139.777 339.203 140.079 339.318 140.432 339.318Z" fill="#C2C7C2"/>
<path d="M952.573 355.727V363H951.692V356.651H951.65L949.874 357.83V356.935L951.692 355.727H952.573ZM957.037 363.099C956.502 363.099 956.046 362.954 955.67 362.663C955.293 362.369 955.006 361.944 954.807 361.388C954.608 360.829 954.508 360.154 954.508 359.364C954.508 358.578 954.608 357.906 954.807 357.35C955.008 356.791 955.297 356.365 955.673 356.072C956.052 355.776 956.507 355.628 957.037 355.628C957.567 355.628 958.021 355.776 958.397 356.072C958.776 356.365 959.065 356.791 959.263 357.35C959.465 357.906 959.565 358.578 959.565 359.364C959.565 360.154 959.466 360.829 959.267 361.388C959.068 361.944 958.78 362.369 958.404 362.663C958.028 362.954 957.572 363.099 957.037 363.099ZM957.037 362.318C957.567 362.318 957.979 362.062 958.273 361.551C958.566 361.04 958.713 360.311 958.713 359.364C958.713 358.734 958.646 358.198 958.511 357.755C958.378 357.312 958.186 356.975 957.935 356.743C957.687 356.511 957.387 356.395 957.037 356.395C956.511 356.395 956.101 356.654 955.805 357.173C955.509 357.689 955.361 358.419 955.361 359.364C955.361 359.993 955.427 360.528 955.56 360.969C955.692 361.409 955.883 361.744 956.131 361.974C956.382 362.203 956.684 362.318 957.037 362.318Z" fill="#C2C7C2"/>
<path d="M954.511 410.099C953.976 410.099 953.52 409.954 953.144 409.663C952.768 409.369 952.48 408.944 952.281 408.388C952.082 407.829 951.983 407.154 951.983 406.364C951.983 405.578 952.082 404.906 952.281 404.35C952.482 403.791 952.771 403.365 953.148 403.072C953.526 402.776 953.981 402.628 954.511 402.628C955.041 402.628 955.495 402.776 955.871 403.072C956.25 403.365 956.539 403.791 956.738 404.35C956.939 404.906 957.04 405.578 957.04 406.364C957.04 407.154 956.94 407.829 956.741 408.388C956.542 408.944 956.255 409.369 955.878 409.663C955.502 409.954 955.046 410.099 954.511 410.099ZM954.511 409.318C955.041 409.318 955.453 409.062 955.747 408.551C956.041 408.04 956.187 407.311 956.187 406.364C956.187 405.734 956.12 405.198 955.985 404.755C955.852 404.312 955.661 403.975 955.41 403.743C955.161 403.511 954.862 403.395 954.511 403.395C953.986 403.395 953.575 403.654 953.279 404.173C952.983 404.689 952.835 405.419 952.835 406.364C952.835 406.993 952.901 407.528 953.034 407.969C953.166 408.409 953.357 408.744 953.606 408.974C953.857 409.203 954.158 409.318 954.511 409.318Z" fill="#C2C7C2"/>
<path d="M135.31 355.727V363H134.429V356.651H134.386L132.611 357.83V356.935L134.429 355.727H135.31ZM139.773 363.099C139.238 363.099 138.783 362.954 138.406 362.663C138.03 362.369 137.742 361.944 137.543 361.388C137.344 360.829 137.245 360.154 137.245 359.364C137.245 358.578 137.344 357.906 137.543 357.35C137.745 356.791 138.033 356.365 138.41 356.072C138.789 355.776 139.243 355.628 139.773 355.628C140.304 355.628 140.757 355.776 141.134 356.072C141.512 356.365 141.801 356.791 142 357.35C142.201 357.906 142.302 358.578 142.302 359.364C142.302 360.154 142.202 360.829 142.004 361.388C141.805 361.944 141.517 362.369 141.141 362.663C140.764 362.954 140.308 363.099 139.773 363.099ZM139.773 362.318C140.304 362.318 140.716 362.062 141.009 361.551C141.303 361.04 141.45 360.311 141.45 359.364C141.45 358.734 141.382 358.198 141.247 357.755C141.115 357.312 140.923 356.975 140.672 356.743C140.423 356.511 140.124 356.395 139.773 356.395C139.248 356.395 138.837 356.654 138.541 357.173C138.245 357.689 138.097 358.419 138.097 359.364C138.097 359.993 138.164 360.528 138.296 360.969C138.429 361.409 138.619 361.744 138.868 361.974C139.119 362.203 139.421 362.318 139.773 362.318Z" fill="#C2C7C2"/>
<path d="M140.432 410.099C139.897 410.099 139.441 409.954 139.065 409.663C138.688 409.369 138.401 408.944 138.202 408.388C138.003 407.829 137.903 407.154 137.903 406.364C137.903 405.578 138.003 404.906 138.202 404.35C138.403 403.791 138.692 403.365 139.068 403.072C139.447 402.776 139.902 402.628 140.432 402.628C140.962 402.628 141.416 402.776 141.792 403.072C142.171 403.365 142.46 403.791 142.658 404.35C142.86 404.906 142.96 405.578 142.96 406.364C142.96 407.154 142.861 407.829 142.662 408.388C142.463 408.944 142.176 409.369 141.799 409.663C141.423 409.954 140.967 410.099 140.432 410.099ZM140.432 409.318C140.962 409.318 141.374 409.062 141.668 408.551C141.961 408.04 142.108 407.311 142.108 406.364C142.108 405.734 142.041 405.198 141.906 404.755C141.773 404.312 141.581 403.975 141.33 403.743C141.082 403.511 140.782 403.395 140.432 403.395C139.906 403.395 139.496 403.654 139.2 404.173C138.904 404.689 138.756 405.419 138.756 406.364C138.756 406.993 138.822 407.528 138.955 407.969C139.087 408.409 139.278 408.744 139.526 408.974C139.777 409.203 140.079 409.318 140.432 409.318Z" fill="#C2C7C2"/>
<path d="M36.25 253H31.7614V238.455H36.4489C37.8598 238.455 39.0672 238.746 40.071 239.328C41.0748 239.906 41.8442 240.737 42.3793 241.821C42.9143 242.901 43.1818 244.193 43.1818 245.699C43.1818 247.214 42.9119 248.518 42.3722 249.612C41.8324 250.701 41.0464 251.539 40.0142 252.126C38.982 252.709 37.7273 253 36.25 253ZM33.5227 251.438H36.1364C37.339 251.438 38.3357 251.205 39.1264 250.741C39.9171 250.277 40.5066 249.617 40.8949 248.76C41.2831 247.903 41.4773 246.883 41.4773 245.699C41.4773 244.525 41.2855 243.514 40.902 242.666C40.5185 241.814 39.9455 241.161 39.1832 240.706C38.4209 240.247 37.4716 240.017 36.3352 240.017H33.5227V251.438ZM45.9091 253V242.091H47.5852V253H45.9091ZM46.7614 240.273C46.4347 240.273 46.1529 240.161 45.9162 239.939C45.6842 239.716 45.5682 239.449 45.5682 239.136C45.5682 238.824 45.6842 238.556 45.9162 238.334C46.1529 238.111 46.4347 238 46.7614 238C47.0881 238 47.3674 238.111 47.5994 238.334C47.8362 238.556 47.9545 238.824 47.9545 239.136C47.9545 239.449 47.8362 239.716 47.5994 239.939C47.3674 240.161 47.0881 240.273 46.7614 240.273ZM58.3825 244.534L56.8768 244.96C56.7821 244.709 56.6424 244.465 56.4577 244.229C56.2778 243.987 56.0316 243.788 55.7191 243.632C55.4066 243.476 55.0065 243.398 54.5188 243.398C53.8512 243.398 53.2949 243.552 52.8498 243.859C52.4094 244.162 52.1893 244.548 52.1893 245.017C52.1893 245.434 52.3408 245.763 52.6438 246.004C52.9469 246.246 53.4203 246.447 54.0643 246.608L55.6836 247.006C56.659 247.242 57.3858 247.605 57.864 248.092C58.3422 248.575 58.5813 249.198 58.5813 249.96C58.5813 250.585 58.4014 251.144 58.0415 251.636C57.6864 252.129 57.1893 252.517 56.5501 252.801C55.9109 253.085 55.1675 253.227 54.32 253.227C53.2073 253.227 52.2863 252.986 51.5572 252.503C50.828 252.02 50.3664 251.314 50.1722 250.386L51.7631 249.989C51.9147 250.576 52.2011 251.016 52.6225 251.31C53.0487 251.603 53.605 251.75 54.2915 251.75C55.0728 251.75 55.6931 251.584 56.1523 251.253C56.6164 250.917 56.8484 250.514 56.8484 250.045C56.8484 249.667 56.7158 249.349 56.4506 249.094C56.1855 248.833 55.7783 248.639 55.229 248.511L53.4109 248.085C52.4118 247.848 51.6779 247.482 51.2092 246.984C50.7451 246.482 50.5131 245.855 50.5131 245.102C50.5131 244.487 50.686 243.942 51.0316 243.469C51.382 242.995 51.8578 242.624 52.4592 242.354C53.0652 242.084 53.7518 241.949 54.5188 241.949C55.5984 241.949 56.4459 242.186 57.0614 242.659C57.6817 243.133 58.122 243.758 58.3825 244.534ZM65.8487 242.091V243.511H60.1953V242.091H65.8487ZM61.843 239.477H63.5192V249.875C63.5192 250.348 63.5878 250.704 63.7251 250.94C63.8672 251.172 64.0471 251.329 64.2649 251.409C64.4875 251.485 64.7218 251.523 64.968 251.523C65.1527 251.523 65.3042 251.513 65.4226 251.494C65.541 251.471 65.6357 251.452 65.7067 251.438L66.0476 252.943C65.9339 252.986 65.7753 253.028 65.5717 253.071C65.3681 253.118 65.1101 253.142 64.7976 253.142C64.3241 253.142 63.8601 253.04 63.4055 252.837C62.9557 252.633 62.5817 252.323 62.2834 251.906C61.9898 251.49 61.843 250.964 61.843 250.33V239.477ZM72.6847 253.227C71.6998 253.227 70.8357 252.993 70.0923 252.524C69.3537 252.055 68.776 251.4 68.3594 250.557C67.9474 249.714 67.7415 248.729 67.7415 247.602C67.7415 246.466 67.9474 245.474 68.3594 244.626C68.776 243.779 69.3537 243.121 70.0923 242.652C70.8357 242.183 71.6998 241.949 72.6847 241.949C73.6695 241.949 74.5313 242.183 75.2699 242.652C76.0133 243.121 76.5909 243.779 77.0028 244.626C77.4195 245.474 77.6278 246.466 77.6278 247.602C77.6278 248.729 77.4195 249.714 77.0028 250.557C76.5909 251.4 76.0133 252.055 75.2699 252.524C74.5313 252.993 73.6695 253.227 72.6847 253.227ZM72.6847 251.722C73.4328 251.722 74.0483 251.53 74.5312 251.146C75.0142 250.763 75.3717 250.259 75.6037 249.634C75.8357 249.009 75.9517 248.331 75.9517 247.602C75.9517 246.873 75.8357 246.194 75.6037 245.564C75.3717 244.934 75.0142 244.425 74.5312 244.037C74.0483 243.649 73.4328 243.455 72.6847 243.455C71.9366 243.455 71.321 243.649 70.8381 244.037C70.3551 244.425 69.9976 244.934 69.7656 245.564C69.5336 246.194 69.4176 246.873 69.4176 247.602C69.4176 248.331 69.5336 249.009 69.7656 249.634C69.9976 250.259 70.3551 250.763 70.8381 251.146C71.321 251.53 71.9366 251.722 72.6847 251.722ZM80.1864 253V242.091H81.8058V243.739H81.9194C82.1183 243.199 82.4781 242.761 82.9989 242.425C83.5198 242.089 84.1069 241.92 84.7603 241.92C84.8834 241.92 85.0373 241.923 85.2219 241.928C85.4066 241.932 85.5463 241.939 85.641 241.949V243.653C85.5842 243.639 85.454 243.618 85.2504 243.589C85.0515 243.556 84.8408 243.54 84.6183 243.54C84.088 243.54 83.6145 243.651 83.1978 243.874C82.7859 244.091 82.4592 244.394 82.2177 244.783C81.9809 245.166 81.8626 245.604 81.8626 246.097V253H80.1864ZM93.0558 242.091V243.511H87.4023V242.091H93.0558ZM89.0501 239.477H90.7262V249.875C90.7262 250.348 90.7949 250.704 90.9322 250.94C91.0742 251.172 91.2541 251.329 91.4719 251.409C91.6945 251.485 91.9289 251.523 92.1751 251.523C92.3597 251.523 92.5112 251.513 92.6296 251.494C92.748 251.471 92.8427 251.452 92.9137 251.438L93.2546 252.943C93.141 252.986 92.9824 253.028 92.7788 253.071C92.5752 253.118 92.3171 253.142 92.0046 253.142C91.5311 253.142 91.0671 253.04 90.6126 252.837C90.1628 252.633 89.7887 252.323 89.4904 251.906C89.1969 251.49 89.0501 250.964 89.0501 250.33V239.477ZM95.5771 253V242.091H97.2532V253H95.5771ZM96.4293 240.273C96.1026 240.273 95.8209 240.161 95.5842 239.939C95.3522 239.716 95.2362 239.449 95.2362 239.136C95.2362 238.824 95.3522 238.556 95.5842 238.334C95.8209 238.111 96.1026 238 96.4293 238C96.756 238 97.0354 238.111 97.2674 238.334C97.5041 238.556 97.6225 238.824 97.6225 239.136C97.6225 239.449 97.5041 239.716 97.2674 239.939C97.0354 240.161 96.756 240.273 96.4293 240.273ZM104.755 253.227C103.77 253.227 102.906 252.993 102.163 252.524C101.424 252.055 100.846 251.4 100.43 250.557C100.018 249.714 99.8118 248.729 99.8118 247.602C99.8118 246.466 100.018 245.474 100.43 244.626C100.846 243.779 101.424 243.121 102.163 242.652C102.906 242.183 103.77 241.949 104.755 241.949C105.74 241.949 106.602 242.183 107.34 242.652C108.084 243.121 108.661 243.779 109.073 244.626C109.49 245.474 109.698 246.466 109.698 247.602C109.698 248.729 109.49 249.714 109.073 250.557C108.661 251.4 108.084 252.055 107.34 252.524C106.602 252.993 105.74 253.227 104.755 253.227ZM104.755 251.722C105.503 251.722 106.119 251.53 106.602 251.146C107.085 250.763 107.442 250.259 107.674 249.634C107.906 249.009 108.022 248.331 108.022 247.602C108.022 246.873 107.906 246.194 107.674 245.564C107.442 244.934 107.085 244.425 106.602 244.037C106.119 243.649 105.503 243.455 104.755 243.455C104.007 243.455 103.391 243.649 102.908 244.037C102.425 244.425 102.068 244.934 101.836 245.564C101.604 246.194 101.488 246.873 101.488 247.602C101.488 248.331 101.604 249.009 101.836 249.634C102.068 250.259 102.425 250.763 102.908 251.146C103.391 251.53 104.007 251.722 104.755 251.722ZM113.933 246.438V253H112.257V242.091H113.876V243.795H114.018C114.274 243.241 114.662 242.796 115.183 242.46C115.704 242.119 116.376 241.949 117.2 241.949C117.939 241.949 118.585 242.1 119.139 242.403C119.693 242.702 120.124 243.156 120.431 243.767C120.739 244.373 120.893 245.14 120.893 246.068V253H119.217V246.182C119.217 245.325 118.994 244.657 118.549 244.179C118.104 243.696 117.493 243.455 116.717 243.455C116.182 243.455 115.704 243.571 115.282 243.803C114.866 244.035 114.537 244.373 114.295 244.818C114.054 245.263 113.933 245.803 113.933 246.438Z" fill="white"/>
<path d="M85.25 483H80.7614V468.455H85.4489C86.8598 468.455 88.0672 468.746 89.071 469.328C90.0748 469.906 90.8442 470.737 91.3793 471.821C91.9143 472.901 92.1818 474.193 92.1818 475.699C92.1818 477.214 91.9119 478.518 91.3722 479.612C90.8324 480.701 90.0464 481.539 89.0142 482.126C87.982 482.709 86.7273 483 85.25 483ZM82.5227 481.438H85.1364C86.339 481.438 87.3357 481.205 88.1264 480.741C88.9171 480.277 89.5066 479.617 89.8949 478.76C90.2831 477.903 90.4773 476.883 90.4773 475.699C90.4773 474.525 90.2855 473.514 89.902 472.666C89.5185 471.814 88.9455 471.161 88.1832 470.706C87.4209 470.247 86.4716 470.017 85.3352 470.017H82.5227V481.438ZM94.9091 483V472.091H96.5852V483H94.9091ZM95.7614 470.273C95.4347 470.273 95.1529 470.161 94.9162 469.939C94.6842 469.716 94.5682 469.449 94.5682 469.136C94.5682 468.824 94.6842 468.556 94.9162 468.334C95.1529 468.111 95.4347 468 95.7614 468C96.0881 468 96.3674 468.111 96.5994 468.334C96.8362 468.556 96.9545 468.824 96.9545 469.136C96.9545 469.449 96.8362 469.716 96.5994 469.939C96.3674 470.161 96.0881 470.273 95.7614 470.273ZM107.382 474.534L105.877 474.96C105.782 474.709 105.642 474.465 105.458 474.229C105.278 473.987 105.032 473.788 104.719 473.632C104.407 473.476 104.007 473.398 103.519 473.398C102.851 473.398 102.295 473.552 101.85 473.859C101.409 474.162 101.189 474.548 101.189 475.017C101.189 475.434 101.341 475.763 101.644 476.004C101.947 476.246 102.42 476.447 103.064 476.608L104.684 477.006C105.659 477.242 106.386 477.605 106.864 478.092C107.342 478.575 107.581 479.198 107.581 479.96C107.581 480.585 107.401 481.144 107.042 481.636C106.686 482.129 106.189 482.517 105.55 482.801C104.911 483.085 104.167 483.227 103.32 483.227C102.207 483.227 101.286 482.986 100.557 482.503C99.828 482.02 99.3664 481.314 99.1722 480.386L100.763 479.989C100.915 480.576 101.201 481.016 101.623 481.31C102.049 481.603 102.605 481.75 103.292 481.75C104.073 481.75 104.693 481.584 105.152 481.253C105.616 480.917 105.848 480.514 105.848 480.045C105.848 479.667 105.716 479.349 105.451 479.094C105.185 478.833 104.778 478.639 104.229 478.511L102.411 478.085C101.412 477.848 100.678 477.482 100.209 476.984C99.7451 476.482 99.5131 475.855 99.5131 475.102C99.5131 474.487 99.686 473.942 100.032 473.469C100.382 472.995 100.858 472.624 101.459 472.354C102.065 472.084 102.752 471.949 103.519 471.949C104.598 471.949 105.446 472.186 106.061 472.659C106.682 473.133 107.122 473.758 107.382 474.534ZM114.849 472.091V473.511H109.195V472.091H114.849ZM110.843 469.477H112.519V479.875C112.519 480.348 112.588 480.704 112.725 480.94C112.867 481.172 113.047 481.329 113.265 481.409C113.487 481.485 113.722 481.523 113.968 481.523C114.153 481.523 114.304 481.513 114.423 481.494C114.541 481.471 114.636 481.452 114.707 481.438L115.048 482.943C114.934 482.986 114.775 483.028 114.572 483.071C114.368 483.118 114.11 483.142 113.798 483.142C113.324 483.142 112.86 483.04 112.406 482.837C111.956 482.633 111.582 482.323 111.283 481.906C110.99 481.49 110.843 480.964 110.843 480.33V469.477ZM121.685 483.227C120.7 483.227 119.836 482.993 119.092 482.524C118.354 482.055 117.776 481.4 117.359 480.557C116.947 479.714 116.741 478.729 116.741 477.602C116.741 476.466 116.947 475.474 117.359 474.626C117.776 473.779 118.354 473.121 119.092 472.652C119.836 472.183 120.7 471.949 121.685 471.949C122.67 471.949 123.531 472.183 124.27 472.652C125.013 473.121 125.591 473.779 126.003 474.626C126.42 475.474 126.628 476.466 126.628 477.602C126.628 478.729 126.42 479.714 126.003 480.557C125.591 481.4 125.013 482.055 124.27 482.524C123.531 482.993 122.67 483.227 121.685 483.227ZM121.685 481.722C122.433 481.722 123.048 481.53 123.531 481.146C124.014 480.763 124.372 480.259 124.604 479.634C124.836 479.009 124.952 478.331 124.952 477.602C124.952 476.873 124.836 476.194 124.604 475.564C124.372 474.934 124.014 474.425 123.531 474.037C123.048 473.649 122.433 473.455 121.685 473.455C120.937 473.455 120.321 473.649 119.838 474.037C119.355 474.425 118.998 474.934 118.766 475.564C118.534 476.194 118.418 476.873 118.418 477.602C118.418 478.331 118.534 479.009 118.766 479.634C118.998 480.259 119.355 480.763 119.838 481.146C120.321 481.53 120.937 481.722 121.685 481.722ZM129.186 483V472.091H130.806V473.739H130.919C131.118 473.199 131.478 472.761 131.999 472.425C132.52 472.089 133.107 471.92 133.76 471.92C133.883 471.92 134.037 471.923 134.222 471.928C134.407 471.932 134.546 471.939 134.641 471.949V473.653C134.584 473.639 134.454 473.618 134.25 473.589C134.051 473.556 133.841 473.54 133.618 473.54C133.088 473.54 132.614 473.651 132.198 473.874C131.786 474.091 131.459 474.394 131.218 474.783C130.981 475.166 130.863 475.604 130.863 476.097V483H129.186ZM142.056 472.091V473.511H136.402V472.091H142.056ZM138.05 469.477H139.726V479.875C139.726 480.348 139.795 480.704 139.932 480.94C140.074 481.172 140.254 481.329 140.472 481.409C140.694 481.485 140.929 481.523 141.175 481.523C141.36 481.523 141.511 481.513 141.63 481.494C141.748 481.471 141.843 481.452 141.914 481.438L142.255 482.943C142.141 482.986 141.982 483.028 141.779 483.071C141.575 483.118 141.317 483.142 141.005 483.142C140.531 483.142 140.067 483.04 139.613 482.837C139.163 482.633 138.789 482.323 138.49 481.906C138.197 481.49 138.05 480.964 138.05 480.33V469.477ZM144.577 483V472.091H146.253V483H144.577ZM145.429 470.273C145.103 470.273 144.821 470.161 144.584 469.939C144.352 469.716 144.236 469.449 144.236 469.136C144.236 468.824 144.352 468.556 144.584 468.334C144.821 468.111 145.103 468 145.429 468C145.756 468 146.035 468.111 146.267 468.334C146.504 468.556 146.623 468.824 146.623 469.136C146.623 469.449 146.504 469.716 146.267 469.939C146.035 470.161 145.756 470.273 145.429 470.273ZM153.755 483.227C152.77 483.227 151.906 482.993 151.163 482.524C150.424 482.055 149.846 481.4 149.43 480.557C149.018 479.714 148.812 478.729 148.812 477.602C148.812 476.466 149.018 475.474 149.43 474.626C149.846 473.779 150.424 473.121 151.163 472.652C151.906 472.183 152.77 471.949 153.755 471.949C154.74 471.949 155.602 472.183 156.34 472.652C157.084 473.121 157.661 473.779 158.073 474.626C158.49 475.474 158.698 476.466 158.698 477.602C158.698 478.729 158.49 479.714 158.073 480.557C157.661 481.4 157.084 482.055 156.34 482.524C155.602 482.993 154.74 483.227 153.755 483.227ZM153.755 481.722C154.503 481.722 155.119 481.53 155.602 481.146C156.085 480.763 156.442 480.259 156.674 479.634C156.906 479.009 157.022 478.331 157.022 477.602C157.022 476.873 156.906 476.194 156.674 475.564C156.442 474.934 156.085 474.425 155.602 474.037C155.119 473.649 154.503 473.455 153.755 473.455C153.007 473.455 152.391 473.649 151.908 474.037C151.425 474.425 151.068 474.934 150.836 475.564C150.604 476.194 150.488 476.873 150.488 477.602C150.488 478.331 150.604 479.009 150.836 479.634C151.068 480.259 151.425 480.763 151.908 481.146C152.391 481.53 153.007 481.722 153.755 481.722ZM162.933 476.438V483H161.257V472.091H162.876V473.795H163.018C163.274 473.241 163.662 472.796 164.183 472.46C164.704 472.119 165.376 471.949 166.2 471.949C166.939 471.949 167.585 472.1 168.139 472.403C168.693 472.702 169.124 473.156 169.431 473.767C169.739 474.373 169.893 475.14 169.893 476.068V483H168.217V476.182C168.217 475.325 167.994 474.657 167.549 474.179C167.104 473.696 166.493 473.455 165.717 473.455C165.182 473.455 164.704 473.571 164.282 473.803C163.866 474.035 163.537 474.373 163.295 474.818C163.054 475.263 162.933 475.803 162.933 476.438Z" fill="white"/>
<rect x="195" y="418" width="40" height="9" fill="#8E9D82"/>
<rect x="144" y="418" width="40" height="9" fill="#8E9D82"/>
<rect x="705" y="418" width="40" height="9" fill="#8E9D82"/>
<rect x="858" y="418" width="40" height="9" fill="#8E9D82"/>
<rect x="756" y="418" width="40" height="9" fill="#8E9D82"/>
<rect x="246" y="418" width="40" height="9" fill="#8E9D82"/>
<rect x="399" y="418" width="40" height="9" fill="#8E9D82"/>
<rect x="348" y="418" width="40" height="9" fill="#8E9D82"/>
<rect x="807" y="418" width="40" height="9" fill="#8E9D82"/>
<rect x="501" y="418" width="40" height="9" fill="#8E9D82"/>
<rect x="297" y="418" width="40" height="9" fill="#8E9D82"/>
<rect x="450" y="418" width="40" height="9" fill="#8E9D82"/>
<rect x="603" y="418" width="40" height="9" fill="#8E9D82"/>
<rect x="552" y="418" width="40" height="9" fill="#8E9D82"/>
<rect x="909" y="418" width="40" height="9" fill="#8E9D82"/>
<rect x="654" y="418" width="40" height="9" fill="#8E9D82"/>
<path d="M29.7159 435.091C29.6307 434.371 29.285 433.812 28.679 433.415C28.0729 433.017 27.3295 432.818 26.4489 432.818C25.8049 432.818 25.2415 432.922 24.7585 433.131C24.2803 433.339 23.9063 433.625 23.6364 433.99C23.3712 434.355 23.2386 434.769 23.2386 435.233C23.2386 435.621 23.331 435.955 23.5156 436.234C23.705 436.509 23.9465 436.739 24.2401 436.923C24.5336 437.103 24.8414 437.252 25.1634 437.371C25.4853 437.484 25.7812 437.577 26.0511 437.648L27.5284 438.045C27.9072 438.145 28.3286 438.282 28.7926 438.457C29.2614 438.633 29.7088 438.872 30.1349 439.175C30.5658 439.473 30.9209 439.857 31.2003 440.325C31.4796 440.794 31.6193 441.369 31.6193 442.051C31.6193 442.837 31.4134 443.547 31.0014 444.182C30.5942 444.816 29.9976 445.321 29.2116 445.695C28.4304 446.069 27.4811 446.256 26.3636 446.256C25.322 446.256 24.42 446.088 23.6577 445.751C22.9001 445.415 22.3035 444.946 21.8679 444.345C21.437 443.744 21.1932 443.045 21.1364 442.25H22.9545C23.0019 442.799 23.1866 443.254 23.5085 443.614C23.8352 443.969 24.2472 444.234 24.7443 444.409C25.2462 444.58 25.786 444.665 26.3636 444.665C27.036 444.665 27.6397 444.556 28.1747 444.338C28.7098 444.116 29.1335 443.808 29.446 443.415C29.7585 443.017 29.9148 442.553 29.9148 442.023C29.9148 441.54 29.7798 441.147 29.5099 440.844C29.2401 440.541 28.8849 440.295 28.4446 440.105C28.0043 439.916 27.5284 439.75 27.017 439.608L25.2273 439.097C24.0909 438.77 23.1913 438.304 22.5284 437.697C21.8655 437.091 21.5341 436.298 21.5341 435.318C21.5341 434.504 21.7543 433.794 22.1946 433.188C22.6397 432.577 23.2363 432.103 23.9844 431.767C24.7372 431.426 25.5777 431.256 26.5057 431.256C27.4432 431.256 28.2765 431.424 29.0057 431.76C29.7348 432.091 30.3125 432.546 30.7386 433.124C31.1695 433.701 31.3968 434.357 31.4205 435.091H29.7159ZM38.8619 446.227C37.8107 446.227 36.904 445.995 36.1417 445.531C35.3841 445.062 34.7994 444.409 34.3874 443.571C33.9802 442.728 33.7766 441.748 33.7766 440.631C33.7766 439.513 33.9802 438.528 34.3874 437.676C34.7994 436.819 35.3723 436.152 36.1062 435.673C36.8448 435.19 37.7066 434.949 38.6914 434.949C39.2596 434.949 39.8207 435.044 40.3746 435.233C40.9286 435.422 41.4329 435.73 41.8874 436.156C42.342 436.578 42.7042 437.136 42.9741 437.832C43.244 438.528 43.3789 439.385 43.3789 440.403V441.114H34.9698V439.665H41.6744C41.6744 439.049 41.5513 438.5 41.305 438.017C41.0636 437.534 40.7179 437.153 40.2681 436.874C39.823 436.594 39.2975 436.455 38.6914 436.455C38.0238 436.455 37.4461 436.62 36.9585 436.952C36.4755 437.278 36.1038 437.705 35.8434 438.23C35.583 438.756 35.4528 439.319 35.4528 439.92V440.886C35.4528 441.71 35.5948 442.409 35.8789 442.982C36.1677 443.55 36.5678 443.983 37.0792 444.281C37.5906 444.575 38.1848 444.722 38.8619 444.722C39.3022 444.722 39.6999 444.66 40.055 444.537C40.4149 444.409 40.725 444.22 40.9854 443.969C41.2459 443.713 41.4471 443.396 41.5891 443.017L43.2085 443.472C43.038 444.021 42.7515 444.504 42.3491 444.92C41.9466 445.332 41.4495 445.654 40.8576 445.886C40.2657 446.114 39.6005 446.227 38.8619 446.227ZM50.6729 435.091V436.511H45.0195V435.091H50.6729ZM46.6673 432.477H48.3434V442.875C48.3434 443.348 48.4121 443.704 48.5494 443.94C48.6914 444.172 48.8713 444.329 49.0891 444.409C49.3117 444.485 49.546 444.523 49.7923 444.523C49.9769 444.523 50.1284 444.513 50.2468 444.494C50.3652 444.471 50.4599 444.452 50.5309 444.438L50.8718 445.943C50.7582 445.986 50.5996 446.028 50.396 446.071C50.1924 446.118 49.9343 446.142 49.6218 446.142C49.1483 446.142 48.6843 446.04 48.2298 445.837C47.7799 445.633 47.4059 445.323 47.1076 444.906C46.814 444.49 46.6673 443.964 46.6673 443.33V432.477ZM57.9386 435.091V436.511H52.2852V435.091H57.9386ZM53.9329 432.477H55.609V442.875C55.609 443.348 55.6777 443.704 55.815 443.94C55.957 444.172 56.137 444.329 56.3548 444.409C56.5773 444.485 56.8117 444.523 57.0579 444.523C57.2425 444.523 57.3941 444.513 57.5124 444.494C57.6308 444.471 57.7255 444.452 57.7965 444.438L58.1374 445.943C58.0238 445.986 57.8652 446.028 57.6616 446.071C57.458 446.118 57.1999 446.142 56.8874 446.142C56.4139 446.142 55.9499 446.04 55.4954 445.837C55.0456 445.633 54.6715 445.323 54.3732 444.906C54.0797 444.49 53.9329 443.964 53.9329 443.33V432.477ZM60.4599 446V435.091H62.136V446H60.4599ZM61.3121 433.273C60.9854 433.273 60.7037 433.161 60.467 432.939C60.235 432.716 60.119 432.449 60.119 432.136C60.119 431.824 60.235 431.556 60.467 431.334C60.7037 431.111 60.9854 431 61.3121 431C61.6388 431 61.9182 431.111 62.1502 431.334C62.387 431.556 62.5053 431.824 62.5053 432.136C62.5053 432.449 62.387 432.716 62.1502 432.939C61.9182 433.161 61.6388 433.273 61.3121 433.273ZM66.8821 439.438V446H65.206V435.091H66.8253V436.795H66.9673C67.223 436.241 67.6113 435.796 68.1321 435.46C68.6529 435.119 69.3253 434.949 70.1491 434.949C70.8878 434.949 71.5341 435.1 72.0881 435.403C72.642 435.702 73.0729 436.156 73.3807 436.767C73.6884 437.373 73.8423 438.14 73.8423 439.068V446H72.1662V439.182C72.1662 438.325 71.9437 437.657 71.4986 437.179C71.0535 436.696 70.4427 436.455 69.6662 436.455C69.1312 436.455 68.6529 436.571 68.2315 436.803C67.8149 437.035 67.4858 437.373 67.2443 437.818C67.0028 438.263 66.8821 438.803 66.8821 439.438ZM81.3086 450.318C80.4989 450.318 79.8029 450.214 79.2205 450.006C78.6381 449.802 78.1528 449.532 77.7646 449.196C77.381 448.865 77.0756 448.509 76.8484 448.131L78.1836 447.193C78.3351 447.392 78.5269 447.619 78.7589 447.875C78.9909 448.135 79.3081 448.36 79.7106 448.55C80.1178 448.744 80.6504 448.841 81.3086 448.841C82.1893 448.841 82.9161 448.628 83.489 448.202C84.0619 447.776 84.3484 447.108 84.3484 446.199V443.983H84.2063C84.0832 444.182 83.908 444.428 83.6808 444.722C83.4582 445.01 83.1362 445.268 82.7148 445.496C82.2982 445.718 81.7347 445.83 81.0245 445.83C80.1438 445.83 79.3531 445.621 78.6523 445.205C77.9563 444.788 77.4047 444.182 76.9975 443.386C76.5951 442.591 76.3938 441.625 76.3938 440.489C76.3938 439.371 76.5903 438.398 76.9833 437.57C77.3763 436.736 77.9232 436.092 78.6239 435.638C79.3247 435.179 80.1344 434.949 81.0529 434.949C81.7631 434.949 82.3266 435.067 82.7433 435.304C83.1647 435.536 83.4866 435.801 83.7092 436.099C83.9364 436.393 84.1116 436.634 84.2347 436.824H84.4052V435.091H86.0245V446.312C86.0245 447.25 85.8114 448.012 85.3853 448.599C84.9639 449.191 84.3957 449.625 83.6808 449.899C82.9705 450.179 82.1798 450.318 81.3086 450.318ZM81.2518 444.324C81.9241 444.324 82.4923 444.17 82.9563 443.862C83.4203 443.554 83.7731 443.112 84.0146 442.534C84.256 441.956 84.3768 441.265 84.3768 440.46C84.3768 439.674 84.2584 438.981 84.0217 438.379C83.7849 437.778 83.4345 437.307 82.9705 436.966C82.5065 436.625 81.9336 436.455 81.2518 436.455C80.5415 436.455 79.9497 436.634 79.4762 436.994C79.0075 437.354 78.6547 437.837 78.418 438.443C78.186 439.049 78.07 439.722 78.07 440.46C78.07 441.218 78.1883 441.888 78.4251 442.47C78.6665 443.048 79.0217 443.502 79.4904 443.834C79.9639 444.161 80.551 444.324 81.2518 444.324ZM96.82 437.534L95.3143 437.96C95.2196 437.709 95.0799 437.465 94.8952 437.229C94.7153 436.987 94.4691 436.788 94.1566 436.632C93.8441 436.476 93.444 436.398 92.9563 436.398C92.2887 436.398 91.7324 436.552 91.2873 436.859C90.8469 437.162 90.6268 437.548 90.6268 438.017C90.6268 438.434 90.7783 438.763 91.0813 439.004C91.3844 439.246 91.8578 439.447 92.5018 439.608L94.1211 440.006C95.0965 440.242 95.8233 440.605 96.3015 441.092C96.7797 441.575 97.0188 442.198 97.0188 442.96C97.0188 443.585 96.8389 444.144 96.479 444.636C96.1239 445.129 95.6268 445.517 94.9876 445.801C94.3484 446.085 93.605 446.227 92.7575 446.227C91.6448 446.227 90.7238 445.986 89.9947 445.503C89.2655 445.02 88.8039 444.314 88.6097 443.386L90.2006 442.989C90.3522 443.576 90.6386 444.016 91.06 444.31C91.4862 444.603 92.0425 444.75 92.729 444.75C93.5103 444.75 94.1306 444.584 94.5898 444.253C95.0539 443.917 95.2859 443.514 95.2859 443.045C95.2859 442.667 95.1533 442.349 94.8881 442.094C94.623 441.833 94.2158 441.639 93.6665 441.511L91.8484 441.085C90.8493 440.848 90.1154 440.482 89.6467 439.984C89.1826 439.482 88.9506 438.855 88.9506 438.102C88.9506 437.487 89.1235 436.942 89.4691 436.469C89.8195 435.995 90.2953 435.624 90.8967 435.354C91.5027 435.084 92.1893 434.949 92.9563 434.949C94.0359 434.949 94.8834 435.186 95.4989 435.659C96.1192 436.133 96.5595 436.758 96.82 437.534Z" fill="white"/>
<line x1="248.5" y1="641" x2="248.5" y2="485.997" stroke="#626B65"/>
<line x1="488.5" y1="641" x2="488.5" y2="485.997" stroke="#626B65"/>
<line x1="728.5" y1="641" x2="728.5" y2="485.997" stroke="#626B65"/>
</svg>
