<svg width="11" height="36" viewBox="0 0 11 36" fill="none" xmlns="http://www.w3.org/2000/svg">
<path d="M5.5 32.3265C2.46243 32.3265 0 30.8792 0 29.0939L0 3.23265C0 1.44731 2.46243 -2.08616e-07 5.5 -2.08616e-07C8.53757 -2.08616e-07 11 1.44731 11 3.23265L11 29.0939C11 30.8792 8.53757 32.3265 5.5 32.3265Z" fill="#4A5642"/>
<path d="M5.5 32.111C2.66494 32.111 0.366667 30.7602 0.366667 29.0939L0.366667 3.23265C0.366667 1.56633 2.66494 0.21551 5.5 0.21551C8.33506 0.21551 10.6333 1.56633 10.6333 3.23265L10.6333 29.0939C10.6333 30.7602 8.33506 32.111 5.5 32.111Z" fill="#2A3125"/>
<path d="M5.5 31.68C3.06995 31.68 1.1 30.5222 1.1 29.0939L1.1 3.23265C1.1 1.80438 3.06995 0.64653 5.5 0.64653C7.93005 0.64653 9.9 1.80438 9.9 3.23265L9.9 29.0939C9.9 30.5222 7.93005 31.68 5.5 31.68Z" fill="#1A1D17"/>
<rect x="3" y="4" width="5" height="24" fill="#0B0D0A"/>
<rect x="3" y="12" width="5" height="13" rx="2.5" fill="black"/>
<path d="M7.19231 27.8319C7.19231 29.1208 6.43464 30.1657 5.5 30.1657C4.56537 30.1657 3.80769 29.1208 3.80769 27.8319L3.80769 18.497C3.80769 17.2081 4.56537 16.1633 5.5 16.1633C6.43464 16.1633 7.19231 17.2081 7.19231 18.497L7.19231 27.8319Z" fill="#D9D9D9"/>
<path d="M3.55385 26.6651C3.55385 21.5095 4.42517 17.3301 5.5 17.3301C6.57484 17.3301 7.44616 21.5095 7.44616 26.6651C7.44616 31.8206 6.57484 36 5.5 36C4.42517 36 3.55385 31.8206 3.55385 26.6651Z" fill="#E0E0E0"/>
<path d="M3.38462 29.5822C3.38462 26.0378 4.33171 23.1645 5.5 23.1645C6.6683 23.1645 7.61539 26.0378 7.61539 29.5822C7.61539 33.1267 6.6683 36 5.5 36C4.33171 36 3.38462 33.1267 3.38462 29.5822Z" fill="#EAEAEA"/>
<path d="M3.38462 30.7491C3.38462 27.8491 4.33171 25.4982 5.5 25.4982C6.6683 25.4982 7.61539 27.8491 7.61539 30.7491C7.61539 33.6491 6.6683 36 5.5 36C4.33171 36 3.38462 33.6491 3.38462 30.7491Z" fill="#EAEAEA"/>
<path d="M4.23077 32.4994C4.23077 31.2105 4.79903 30.1657 5.5 30.1657C6.20098 30.1657 6.76923 31.2105 6.76923 32.4994C6.76923 33.7883 6.20098 34.8331 5.5 34.8331C4.79903 34.8331 4.23077 33.7883 4.23077 32.4994Z" fill="#F2F2F2"/>
<ellipse cx="5.5" cy="19" rx="2.5" ry="3" fill="#182017" fill-opacity="0.53"/>
<circle cx="5.5" cy="18.5" r="2.5" fill="black" fill-opacity="0.53"/>
<ellipse cx="5.5" cy="18" rx="2.5" ry="2" fill="black" fill-opacity="0.77"/>
<rect x="3" y="15" width="5" height="3" fill="black"/>
<ellipse cx="4.5" cy="26.5" rx="0.5" ry="4.5" fill="black" fill-opacity="0.17"/>
</svg>
