<svg width="11" height="36" viewBox="0 0 11 36" fill="none" xmlns="http://www.w3.org/2000/svg">
<path d="M5.5 3.67347C8.53757 3.67347 11 5.12078 11 6.90612L11 32.7673C11 34.5527 8.53757 36 5.5 36C2.46243 36 -2.38419e-07 34.5527 -2.38419e-07 32.7673L-2.38419e-07 6.90612C-2.38419e-07 5.12078 2.46243 3.67347 5.5 3.67347Z" fill="#4A5642"/>
<path d="M5.5 3.88898C8.33506 3.88898 10.6333 5.2398 10.6333 6.90612L10.6333 32.7673C10.6333 34.4337 8.33506 35.7845 5.5 35.7845C2.66494 35.7845 0.366666 34.4337 0.366666 32.7673L0.366666 6.90612C0.366666 5.2398 2.66494 3.88898 5.5 3.88898Z" fill="#2A3125"/>
<path d="M5.5 4.32C7.93005 4.32 9.9 5.47785 9.9 6.90612L9.9 32.7673C9.9 34.1956 7.93005 35.3535 5.5 35.3535C3.06995 35.3535 1.1 34.1956 1.1 32.7673L1.1 6.90612C1.1 5.47785 3.06995 4.32 5.5 4.32Z" fill="#1A1D17"/>
<rect x="8" y="32" width="5" height="24" transform="rotate(-180 8 32)" fill="#0B0D0A"/>
<rect x="8" y="24" width="5" height="13" rx="2.5" transform="rotate(-180 8 24)" fill="black"/>
<path d="M3.80769 8.16807C3.80769 6.87918 4.56536 5.83433 5.5 5.83433C6.43463 5.83433 7.19231 6.87918 7.19231 8.16807L7.19231 17.503C7.19231 18.7919 6.43463 19.8367 5.5 19.8367C4.56536 19.8367 3.80769 18.7919 3.80769 17.503L3.80769 8.16807Z" fill="#D9D9D9"/>
<path d="M7.44615 9.33493C7.44615 14.4905 6.57483 18.6699 5.5 18.6699C4.42516 18.6699 3.55384 14.4905 3.55384 9.33493C3.55384 4.17939 4.42516 0 5.5 0C6.57483 0 7.44615 4.17939 7.44615 9.33493Z" fill="#E0E0E0"/>
<path d="M7.61538 6.41777C7.61538 9.9622 6.66829 12.8355 5.5 12.8355C4.3317 12.8355 3.38461 9.9622 3.38461 6.41777C3.38461 2.87333 4.3317 0 5.5 0C6.66829 0 7.61538 2.87333 7.61538 6.41777Z" fill="#EAEAEA"/>
<path d="M7.61538 5.2509C7.61538 8.15089 6.66829 10.5018 5.5 10.5018C4.3317 10.5018 3.38461 8.15089 3.38461 5.2509C3.38461 2.35091 4.3317 0 5.5 0C6.66829 0 7.61538 2.35091 7.61538 5.2509Z" fill="#EAEAEA"/>
<path d="M6.76923 3.5006C6.76923 4.78949 6.20097 5.83433 5.5 5.83433C4.79902 5.83433 4.23077 4.78949 4.23077 3.5006C4.23077 2.21171 4.79902 1.16687 5.5 1.16687C6.20097 1.16687 6.76923 2.21171 6.76923 3.5006Z" fill="#F2F2F2"/>
<ellipse cx="5.5" cy="17" rx="2.5" ry="3" transform="rotate(-180 5.5 17)" fill="#182017" fill-opacity="0.53"/>
<circle cx="5.5" cy="17.5" r="2.5" transform="rotate(-180 5.5 17.5)" fill="black" fill-opacity="0.53"/>
<ellipse cx="5.5" cy="18" rx="2.5" ry="2" transform="rotate(-180 5.5 18)" fill="black" fill-opacity="0.77"/>
<rect x="8" y="21" width="5" height="3" transform="rotate(-180 8 21)" fill="black"/>
<ellipse cx="6.5" cy="9.5" rx="0.5" ry="4.5" transform="rotate(-180 6.5 9.5)" fill="black" fill-opacity="0.17"/>
</svg>
